<?xml version="1.0" standalone="no"?>
<!DOCTYPE svg PUBLIC "-//W3C//DTD SVG 1.1//EN" "http://www.w3.org/Graphics/SVG/1.1/DTD/svg11.dtd" >
<!--
2013-9-30: Created.
-->
<svg>
<metadata>
Created by iconfont
</metadata>
<defs>

<font id="iconfont" horiz-adv-x="1024" >
  <font-face
    font-family="iconfont"
    font-weight="500"
    font-stretch="normal"
    units-per-em="1024"
    ascent="896"
    descent="-128"
  />
    <missing-glyph />
    
    <glyph glyph-name="jinggao1" unicode="&#58948;" d="M512 864C248 864 32 648 32 384s216-480 480-480 480 216 480 480S776 864 512 864zM512 96c-24 0-48 18-48 48 0 24 18 48 48 48s48-18 48-48C560 120 536 96 512 96zM542 294C542 276 530 264 512 264S482 276 482 294L482 624c0 18 12 30 30 30S542 642 542 624L542 294z"  horiz-adv-x="1024" />

    
    <glyph glyph-name="xiazai5" unicode="&#58893;" d="M993.924741-44.790519l-172.86637 172.86637C888.452741 207.435852 929.185185 310.139259 929.185185 422.418963c0 251.354074-203.757037 455.111111-455.111111 455.111111s-455.111111-203.757037-455.111111-455.111111 203.757037-455.111111 455.111111-455.111111c111.767704 0 214.072889 40.353185 293.281185 107.216593l172.942222-172.942222c14.810074-14.810074 38.817185-14.810074 53.627259 0C1008.734815-83.607704 1008.734815-59.600593 993.924741-44.790519zM474.074074 43.159704c-209.464889 0-379.259259 169.79437-379.259259 379.259259s169.79437 379.259259 379.259259 379.259259 379.259259-169.79437 379.259259-379.259259S683.538963 43.159704 474.074074 43.159704z"  horiz-adv-x="1024" />

    
    <glyph glyph-name="tuichu" unicode="&#59016;" d="M513.335-66c248.368 0 448.665 200.296 448.665 448.665 0 165.579-88.131 309.792-218.991 387.24-42.729 24.036-66.765-26.707-29.377-50.742 114.837-66.765 192.284-192.284 192.284-336.499 0-216.321-176.261-392.582-392.582-392.582-216.321 0-392.582 176.261-392.582 392.582 0 144.214 77.449 269.733 192.284 336.499 34.718 24.036 13.353 74.777-29.377 50.742-133.531-77.449-221.662-221.662-221.662-387.24 0-248.368 202.968-448.665 451.335-448.665zM513.335 834c18.694 0 37.388-16.024 37.388-34.717v-504.748c0-18.694-18.695-34.717-37.388-34.717-21.366 0-37.388 16.024-37.388 34.718v504.748c0 18.694 16.024 34.717 37.388 34.717z"  horiz-adv-x="1024" />

    
    <glyph glyph-name="jiazai" unicode="&#58934;" d="M512.606821-62.898283c-246.319012 0-446.698738 200.379727-446.698738 446.698738S266.287809 830.520683 512.606821 830.520683c17.73185 0 32.117488-14.385639 32.117488-32.117488s-14.385639-32.117488-32.117488-32.117488c-210.897268 0-382.463762-171.58696-382.463762-382.484228s171.566494-382.463762 382.463762-382.463762 382.484228 171.566494 382.484228 382.463762c0 106.013499-42.384319 204.603935-119.332852 277.558503-12.859889 12.211113-13.403265 32.536021-1.212618 45.416376 12.190647 12.901845 32.536021 13.403265 45.416376 1.212618 89.870844-85.229127 139.365094-200.35926 139.365094-324.187497C959.327048 137.481444 758.925832-62.898283 512.606821-62.898283z"  horiz-adv-x="1024" />

    
    <glyph glyph-name="yinle" unicode="&#58890;" d="M760.53333333 517.5466666699999c-87.14666667 0-158.08 70.93333333-158.08 158.08 0 15.89333333-12.90666667 28.8-28.8 28.8s-28.8-12.90666667-28.8-28.8c0-3.09333333 0.10666667-6.08 0.21333334-9.06666667-0.10666667-0.74666667-0.21333333-1.49333333-0.21333334-2.24v-287.46666667c-28.90666667 24.96-66.56 40.21333333-107.73333333 40.21333334-91.09333333 0-165.22666667-74.13333333-165.22666667-165.22666667s74.13333333-165.22666667 165.22666667-165.22666667c89.06666667 0 161.70666667 70.82666667 164.90666667 159.14666667 0.10666667 1.06666667 0.32 2.02666667 0.32 3.09333333v280.53333334c39.36-42.56 95.68-69.22666667 158.08-69.22666667 15.89333333 0 28.8 12.90666667 28.8 28.8 0.10666667 15.68-12.8 28.58666667-28.69333334 28.58666667zM437.22666667 144.10666666999998c-59.41333333 0-107.73333333 48.32-107.73333334 107.73333333s48.32 107.73333333 107.73333334 107.73333333 107.73333333-48.32 107.73333333-107.73333333-48.32-107.73333333-107.73333333-107.73333333zM510.72 861.44c-263.46666667 0-477.76-214.29333333-477.76-477.76 0-263.46666667 214.29333333-477.76 477.76-477.76 263.46666667 0 477.76 214.29333333 477.76 477.76 0 263.46666667-214.29333333 477.76-477.76 477.76z m0-898.02666667c-231.68 0-420.26666667 188.48-420.26666667 420.26666667 0 231.68 188.48 420.26666667 420.26666667 420.26666667 231.68 0 420.26666667-188.48 420.26666667-420.26666667s-188.58666667-420.26666667-420.26666667-420.26666667z"  horiz-adv-x="1024" />

    
    <glyph glyph-name="shipin" unicode="&#58966;" d="M814.545455 709.818182h-230.4l121.018181 86.109091c11.636364 6.981818 13.963636 20.945455 4.654546 32.581818-6.981818 11.636364-20.945455 13.963636-32.581818 4.654545l-165.236364-116.363636-165.236364 116.363636c-11.636364 6.981818-25.6 4.654545-32.581818-4.654545-6.981818-11.636364-4.654545-25.6 4.654546-32.581818L439.854545 709.818182H209.454545c-76.8 0-139.636364-62.836364-139.636363-139.636364v-477.090909c0-76.8 62.836364-139.636364 139.636363-139.636364h605.09091c76.8 0 139.636364 62.836364 139.636363 139.636364V570.181818c0 76.8-62.836364 139.636364-139.636363 139.636364z m93.090909-616.727273c0-51.2-41.890909-93.090909-93.090909-93.090909H209.454545c-51.2 0-93.090909 41.890909-93.090909 93.090909V570.181818c0 51.2 41.890909 93.090909 93.090909 93.090909h605.09091c51.2 0 93.090909-41.890909 93.090909-93.090909v-477.090909zM686.545455 372.36363600000004l-251.345455 144.290909c-6.981818 4.654545-16.290909 6.981818-23.272727 6.981819-23.272727 0-46.545455-18.618182-46.545455-46.545455v-290.909091c0-27.927273 23.272727-46.545455 46.545455-46.545454 6.981818 0 16.290909 2.327273 23.272727 6.981818L686.545455 290.909091c30.254545 18.618182 30.254545 62.836364 0 81.454545z m-274.618182-186.181818V477.090909l251.345454-144.290909-251.345454-146.618182z"  horiz-adv-x="1024" />

    
    <glyph glyph-name="tupian" unicode="&#58929;" d="M956.67712 52.32128c-2.69312-50.048-68.03456-38.34368-102.16448-38.34368H127.86688c-13.4912 0-26.38848-1.21344-38.8352 5.23264-20.09088 10.41408-18.99008 31.89248-18.99008 50.77504v68.4032V603.1872 715.51488c0 49.51552 67.21024 38.39488 99.28704 38.39488h663.45984c30.8736 0 68.70016 5.96992 98.94912-2.34496 38.00064-10.44992 24.9344-90.77248 24.9344-118.53312v-226.16576l0.00512-354.54464c0-33.01376 51.2-33.01376 51.2 0V396.67712 625.90464c0 37.52448 7.49056 86.95296-6.6048 122.88-22.44608 57.21088-77.39904 56.32512-127.80032 56.32512H109.07136c-50.88256 0-87.5776-40.45312-90.21952-89.54368-0.53248-9.9072 0-19.9936 0-29.91104v-613.8368c0-18.16064-0.23552-35.2768 6.6048-52.71552 13.97248-35.61984 48.81408-56.33024 86.3232-56.33024h794.75712c54.46656 0 98.24256 32.0256 101.34528 89.54368 1.77152 33.01376-49.43872 32.83968-51.20512 0.00512zM664.8576 560.7424c-1.4848-45.8752-36.16256-80.54784-82.03264-82.03264-45.85984-1.4848-80.62464 38.38976-82.03264 82.03264-1.4848 45.86496 38.38976 80.62464 82.03264 82.03264 45.85984 1.4848 80.62464-38.38976 82.03264-82.03264 1.06496-32.93184 52.27008-33.03424 51.2 0-2.40128 74.2144-59.02336 130.83648-133.23264 133.23264-74.17344 2.40128-130.94912-62.63296-133.23264-133.23264-2.40128-74.17344 62.63296-130.94912 133.23264-133.23264 74.17344-2.40128 130.94912 62.63296 133.23264 133.23264 1.07008 33.03424-50.13504 32.92672-51.2 0zM62.55616 195.19488l229.46304 186.02496h-36.20352l445.44512-389.93408c24.7296-21.65248 61.09184 14.4128 36.1984 36.1984l-445.44 389.9392c-11.34592 9.9328-24.79616 9.24672-36.20352 0L26.35264 231.39328c-25.66144-20.79744 10.79808-56.79104 36.20352-36.1984zM600.92416 144.88576l164.69504 185.1392h-36.1984c78.24384-75.37152 156.4928-150.7328 234.74688-226.0992 23.77728-22.90176 60.02176 13.2608 36.1984 36.1984-78.24384 75.37152-156.4928 150.7328-234.74688 226.0992-9.59488 9.24672-26.79808 10.5728-36.1984 0a2831453.4144 2831453.4144 0 0 1-164.69504-185.1392c-21.86752-24.576 14.21312-60.91776 36.1984-36.1984z"  horiz-adv-x="1024" />

    
    <glyph glyph-name="HKG" unicode="&#58882;" d="M0 896h1807.058824v-1024H0V896zM1014.964706 411.105882c-66.258824 42.164706-84.329412-33.129412-84.329412 0 0 69.270588 75.294118 126.494118 168.658824 126.494118 93.364706 0 168.658824-57.223529 168.658823-126.494118-81.317647 0-87.341176-42.164706-126.494117-42.164706-48.188235 0-60.235294 0-126.494118 42.164706z m-48.188235-150.588235c18.070588 75.294118-57.223529 69.270588-27.105883 81.317647 66.258824 21.082353 144.564706-33.129412 171.670588-120.470588 30.117647-87.341176-3.011765-177.694118-69.270588-198.776471-24.094118 75.294118-66.258824 69.270588-78.305882 108.42353-12.047059 42.164706-15.058824 51.2 3.011765 129.505882z m-153.6 0c78.305882 6.023529 48.188235 78.305882 69.270588 48.188235 42.164706-57.223529 15.058824-147.576471-60.235294-201.788235-75.294118-54.211765-168.658824-54.211765-210.82353 3.011765 63.247059 45.176471 45.176471 84.329412 78.305883 108.423529 33.129412 30.117647 45.176471 36.141176 123.482353 42.164706z m-51.2 147.576471c30.117647-72.282353 87.341176-21.082353 69.270588-48.188236-42.164706-57.223529-135.529412-57.223529-210.82353-3.011764s-102.4 144.564706-60.235294 201.788235c63.247059-45.176471 96.376471-18.070588 126.494118-39.152941 36.141176-30.117647 48.188235-36.141176 75.294118-111.435294z m126.494117 93.364706c-60.235294-51.2 6.023529-90.352941-27.105882-81.317648-66.258824 21.082353-96.376471 111.435294-69.270588 198.776471s105.411765 141.552941 171.670588 120.470588c-24.094118-75.294118 12.047059-96.376471 0-132.517647-12.047059-42.164706-15.058824-54.211765-75.294118-105.411764z m-6.023529 99.388235l12.047059-18.070588v21.082353l21.082353 6.023529-21.082353 9.035294v24.094118l-12.047059-18.070589-21.082353 6.02353 12.047059-15.058824-15.058824-18.070588c3.011765 0 24.094118 3.011765 24.094118 3.011765z m246.964706-159.62353l21.082353 6.02353-21.082353 9.035294v21.082353l-15.058824-18.070588-21.082353 6.023529 12.047059-18.070588-15.058823-18.070588 21.082352 6.023529 12.047059-18.070588 6.02353 24.094117z m-81.317647-274.070588l21.082353 6.02353-21.082353 9.035294V203.294118l-15.058824-18.070589-21.082353 6.02353 12.047059-18.070588-15.058824-18.070589 21.082353 6.02353 12.047059-18.070588 6.02353 24.094117z m-286.117647-6.023529l21.082353 6.023529-21.082353 9.035294v21.082353l-15.058824-18.070588-21.082353 6.023529 12.047059-18.070588-15.058824-18.070588 21.082353 6.023529 12.047059-18.070588 6.02353 24.094118z m-99.388236 271.058823l21.082353 6.02353-21.082353 9.035294v21.082353l-15.058823-18.070588-21.082353 9.035294 12.047059-18.070589-12.047059-18.070588 21.082353 6.02353 12.047059-18.070589v21.082353z"  horiz-adv-x="1807" />

    
    <glyph glyph-name="xinjiapo" unicode="&#58883;" d="M0 896h1807.058824v-1024H0V896zM1807.058824-128H0V896h1807.058824v-1024z m-1807.058824 3.011765h1807.058824V892.988235H0v-1017.97647zM0 892.988235h1807.058824v-515.011764H0V892.988235zM289.129412 633.976471c0 75.294118 45.176471 144.564706 108.423529 177.694117-12.047059 3.011765-24.094118 3.011765-36.141176 3.011765-102.4 0-180.705882-81.317647-180.705883-180.705882 0-102.4 81.317647-180.705882 180.705883-180.705883 15.058824 0 24.094118 0 36.141176 3.011765-63.247059 30.117647-108.423529 99.388235-108.423529 177.694118zM493.929412 775.529412l12.047059-30.117647h30.117647l-24.094118-18.070589 12.047059-30.117647-24.094118 18.070589-24.094117-18.070589 12.047058 30.117647-33.129411 18.070589h33.129411l6.02353 30.117647z m105.411764-75.294118l6.02353-30.117647h33.129412l-24.094118-18.070588 6.023529-30.117647-21.082353 18.070588-24.094117-18.070588 12.047059 30.117647-24.094118 18.070588h30.117647l6.023529 30.117647z m-210.823529 0l12.047059-30.117647h30.117647l-21.082353-18.070588 6.023529-30.117647-24.094117 18.070588-21.082353-18.070588 6.023529 30.117647-21.082353 18.070588h30.117647l3.011765 30.117647z m39.152941-123.482353l12.047059-30.117647h30.117647l-24.094118-18.070588 12.047059-30.117647-24.094117 18.070588-21.082353-18.070588 6.023529 30.117647-24.094118 18.070588h27.105883l6.023529 30.117647z m132.517647 0l6.02353-30.117647h33.129411l-24.094117-18.070588 12.047059-30.117647-24.094118 18.070588-24.094118-18.070588 12.047059 30.117647-24.094117 18.070588h30.117647l3.011764 30.117647zM1788.988235 877.929412v-987.858824H18.070588V877.929412h1770.917647M1807.058824 896H0v-1024h1807.058824V896z"  horiz-adv-x="1807" />

    
    <glyph glyph-name="zhongguo" unicode="&#58884;" d="M0 896h1807.058824v-1024H0V896zM259.011765 772.517647l33.129411-96.376471h102.4l-84.329411-63.247058 33.129411-99.388236-84.329411 63.247059-84.329412-63.247059 33.129412 99.388236-84.329412 63.247058h102.4l33.129412 96.376471z m352.37647-195.764706l12.047059-30.117647h30.117647l-27.105882-18.070588 12.047059-30.117647-27.105883 18.070588-27.105882-18.070588 12.047059 30.117647-24.094118 21.082353h30.117647l9.035294 27.105882zM644.517647 715.294118l-15.058823-27.105883 21.082352-21.082353-30.117647 3.011765-15.058823-30.117647-3.011765 36.141176-30.117647 3.011765 30.117647 15.058824-6.023529 30.117647 21.082353-21.082353 27.105882 12.047059z m-168.658823 93.364706l30.117647-12.047059 21.082353 27.105882-3.011765-33.129412 30.117647-12.047059-30.117647-6.023529-3.011765-30.117647-15.058823 27.105882-33.129412-6.023529 21.082353 21.082353-18.070588 24.094118z m0-352.376471l30.117647-12.047059 21.082353 27.105882-3.011765-33.129411 30.117647-12.047059-30.117647-6.02353-3.011765-33.129411-15.058823 30.117647-33.129412-12.047059 21.082353 27.105882-18.070588 24.094118z"  horiz-adv-x="1807" />

    
    <glyph glyph-name="eluosi" unicode="&#58885;" d="M0 896h1807.058824v-343.341176H0V896zM0 552.658824h1807.058824v-337.317648H0V552.658824zM0 215.341176h1807.058824V-128H0V215.341176zM1788.988235 877.929412v-987.858824H18.070588V877.929412h1770.917647M1807.058824 896H0v-1024h1807.058824V896z"  horiz-adv-x="1807" />

    
    <glyph glyph-name="yindu" unicode="&#58886;" d="M0 209.317647h1807.058824V-128H0V209.317647zM0 555.670588h1807.058824v-346.352941H0V555.670588zM0 896h1807.058824v-337.317647H0V896zM1048.094118 429.176471l-9.035294 6.023529 6.023529 9.035294 9.035294-6.023529-6.023529-9.035294z m9.035294-36.141177l-6.02353 6.02353 6.02353 6.023529 6.023529-6.023529-6.023529-6.02353z m0-33.129412l-6.02353 9.035294 9.035294 6.02353 3.011765-9.035294-6.023529-6.02353z m-12.047059-36.141176l-3.011765 9.035294 9.035294 3.011765 3.011765-9.035294-9.035294-3.011765zM1048.094118 429.176471l-9.035294 6.023529 6.023529 9.035294 9.035294-6.023529-6.023529-9.035294z m9.035294-36.141177l-6.02353 6.02353 6.02353 6.023529 6.023529-6.023529-6.023529-6.02353z m0-33.129412l-6.02353 9.035294 9.035294 6.02353 3.011765-9.035294-6.023529-6.02353z m-12.047059-36.141176l-3.011765 9.035294 9.035294 3.011765 3.011765-9.035294-9.035294-3.011765z m-135.529412 192.752941l-6.023529-6.023529-6.02353 6.023529 6.02353 6.023529 6.023529-6.023529z m36.141177 0l-9.035294-3.011765-3.011765 6.02353 9.035294 6.023529 3.011765-9.035294z m33.129411-12.047059l-9.035294-3.011764-3.011764 9.035294 9.035294 3.011764 3.011764-9.035294z m21.082353-9.035294h9.035294v-9.035294h-9.035294v9.035294z m33.129412-36.141176l-9.035294 3.011764 3.011765 9.035294 9.035294-3.011764-3.011765-9.035294z m-6.023529-165.647059v9.035294h9.035294v-9.035294h-9.035294z m-27.105883-24.094118l3.011765 9.035294 9.035294-3.011764-3.011765-9.035295-9.035294 3.011765z m-30.117647-15.058823l6.02353 9.035294 9.035294-6.02353-3.011765-9.035294-12.047059 6.02353z m-36.141176-9.035294l6.023529 6.023529 6.02353-6.023529-6.02353-6.02353-6.023529 6.02353z m-33.129412 3.011764l9.035294 6.02353 6.02353-9.035294-12.047059-6.02353-3.011765 9.035294z m-36.141176 9.035294l9.035294 3.011765 3.011764-9.035294-9.035294-3.011765-3.011764 9.035294z m-30.117647 21.082353h9.035294v-9.035294h-9.035294v9.035294z m-21.082353 24.094118l9.035294-3.011765-3.011765-9.035294-9.035294 3.011765 3.011765 9.035294z m-18.070589 33.129412l9.035294-6.02353-6.023529-9.035294-9.035294 3.011765 6.023529 12.047059z m-9.035294 33.129411l6.02353-6.023529-6.02353-6.023529-6.023529 6.023529 6.023529 6.023529z m3.011765 36.141177l6.023529-9.035294-9.035294-6.02353-6.023529 9.035295 9.035294 6.023529z m9.035294 33.129412l3.011765-9.035294-9.035294-3.011765-3.011765 9.035294 9.035294 3.011765z m21.082353 30.117647v-9.035294h-9.035294v9.035294h9.035294z m24.094118 24.094117v-9.035294l-9.035294 3.011765 3.011764 9.035294 6.02353-3.011765z m33.129411 15.058824l-6.023529-9.035294-6.023529 6.023529 6.023529 9.035294 6.023529-6.023529z m42.164706-126.494118l3.011765 54.211765-3.011765 81.317647-3.011764-81.317647 3.011764-54.211765z m0 0l18.070589 51.2 18.070588 78.305883-24.094118-78.305883-12.047059-51.2z m0 0l30.117647 45.176471 36.141177 72.282353-45.176471-69.270588-21.082353-48.188236z m0 0l42.164706 36.141177 54.211765 60.235294-60.235294-54.211765-36.141177-42.164706z m0 0l48.188236 24.094118 69.270588 45.176471L963.764706 414.117647l-45.176471-33.129412z m0 0l54.211765 9.035294 78.305882 24.094118-78.305882-18.070588-54.211765-15.058824z m0 0l54.211765-3.011764 81.317647 3.011764-81.317647 3.011765-54.211765-3.011765z m0 0l51.2-18.070588 78.305883-18.070588-78.305883 24.094117-51.2 12.047059z m0 0l45.176471-30.117647 72.282353-36.141176-69.270588 45.17647-48.188236 21.082353z m0 0l36.141177-42.164706 60.235294-54.211764-54.211765 60.235294-42.164706 36.141176z m0 0l24.094118-48.188235 45.176471-69.270588-36.141177 72.282353-33.129412 45.17647z m0 0l9.035294-54.211764 24.094118-78.305883-18.070588 78.305883-15.058824 54.211764z m0 0l-3.011764-54.211764 3.011764-81.317647 3.011765 81.317647-3.011765 54.211764z m0 0l-18.070588-51.2-18.070588-78.305882 24.094117 78.305882 12.047059 51.2z m0 0l-30.117647-45.17647-36.141176-72.282353 45.17647 69.270588 21.082353 48.188235z m0 0l-42.164706-36.141176-54.211764-60.235294 60.235294 54.211764 36.141176 42.164706z m0 0l-48.188235-24.094117-69.270588-45.176471 72.282353 36.141177 45.17647 33.129411z m0 0l-54.211764-9.035294-78.305883-24.094117 78.305883 18.070588 54.211764 15.058823z m0 0l-54.211764 3.011765-81.317647-3.011765 81.317647-3.011764 54.211764 3.011764z m0 0l-51.2 18.070589-78.305882 18.070588 78.305882-24.094118 51.2-12.047059z m0 0l-45.17647 30.117647-72.282353 36.141177 69.270588-45.176471 48.188235-21.082353z m0 0l-36.141176 42.164706-60.235294 54.211765 54.211764-60.235294 42.164706-36.141177z m0 0l-24.094117 48.188236-45.176471 69.270588 36.141177-72.282353 33.129411-45.176471z m0 0l-9.035294 54.211765-24.094117 78.305882 18.070588-78.305882 15.058823-54.211765zM960.752941 531.576471c-81.317647 21.082353-165.647059-27.105882-186.729412-108.42353-21.082353-81.317647 27.105882-165.647059 108.42353-189.741176 81.317647-21.082353 165.647059 27.105882 186.729412 108.423529 24.094118 81.317647-24.094118 165.647059-108.42353 189.741177z m-72.282353-283.105883c-72.282353 18.070588-114.447059 93.364706-96.37647 165.647059 18.070588 72.282353 93.364706 114.447059 165.647058 96.376471 72.282353-18.070588 114.447059-93.364706 96.376471-165.647059-21.082353-72.282353-93.364706-114.447059-165.647059-96.376471zM948.705882 374.964706c-3.011765-15.058824-18.070588-24.094118-33.129411-18.070588a24.094118 24.094118 0 0 0-18.070589 33.129411c3.011765 15.058824 18.070588 24.094118 33.129412 18.070589 12.047059-3.011765 21.082353-18.070588 18.070588-33.129412z m30.117647 129.505882l-9.035294-3.011764-3.011764 9.035294 9.035294 3.011764 3.011764-9.035294z m21.082353-9.035294h9.035294v-9.035294h-9.035294v9.035294z m33.129412-36.141176l-9.035294 3.011764 3.011765 9.035294 9.035294-3.011764-3.011765-9.035294z m-6.023529-165.647059v9.035294h9.035294v-9.035294h-9.035294z m-27.105883-24.094118l3.011765 9.035294 9.035294-3.011764-3.011765-9.035295-9.035294 3.011765z m-30.117647-15.058823l6.02353 9.035294 9.035294-6.02353-3.011765-9.035294-12.047059 6.02353z m-36.141176-9.035294l6.023529 6.023529 6.02353-6.023529-6.02353-6.02353-6.023529 6.02353z m-33.129412 3.011764l9.035294 6.02353 6.02353-9.035294-12.047059-6.02353-3.011765 9.035294z m-36.141176 9.035294l9.035294 3.011765 3.011764-9.035294-9.035294-3.011765-3.011764 9.035294z m-30.117647 21.082353h9.035294v-9.035294h-9.035294v9.035294z m-21.082353 24.094118l9.035294-3.011765-3.011765-9.035294-9.035294 3.011765 3.011765 9.035294z m-18.070589 33.129412l9.035294-6.02353-6.023529-9.035294-9.035294 3.011765 6.023529 12.047059z m-9.035294 33.129411l6.02353-6.023529-6.02353-6.023529-6.023529 6.023529 6.023529 6.023529z m3.011765 36.141177l6.023529-9.035294-9.035294-6.02353-6.023529 9.035295 9.035294 6.023529z m9.035294 33.129412l3.011765-9.035294-9.035294-3.011765-3.011765 9.035294 9.035294 3.011765z m21.082353 30.117647v-9.035294h-9.035294v9.035294h9.035294z m24.094118 24.094117v-9.035294l-9.035294 3.011765 3.011764 9.035294 6.02353-3.011765z m33.129411 15.058824l-6.023529-9.035294-6.023529 6.023529 6.023529 9.035294 6.023529-6.023529z m33.129412 9.035294l-6.023529-6.023529-6.02353 6.023529 6.02353 6.023529 6.023529-6.023529zM1788.988235 877.929412v-987.858824H18.070588V877.929412h1770.917647M1807.058824 896H0v-1024h1807.058824V896z"  horiz-adv-x="1807" />

    
    <glyph glyph-name="deguo" unicode="&#58887;" d="M0 896h1807.058824v-346.352941H0V896zM0 555.670588h1807.058824v-337.317647H0V555.670588zM0 218.352941h1807.058824V-128H0V218.352941z"  horiz-adv-x="1807" />

    
    <glyph glyph-name="hanguo" unicode="&#58888;" d="M3.011765 892.988235h1801.035294v-1017.97647H3.011765zM545.129412 769.505882l30.117647-21.082353-129.505883-192.752941-30.117647 21.082353 129.505883 192.752941z m48.188235-33.129411l30.117647-21.082353-129.505882-192.752942-30.117647 21.082353 129.505882 192.752942z m48.188235-33.129412l30.117647-21.082353-129.505882-192.752941-30.117647 21.082353 129.505882 192.752941z m-228.894117-505.976471l30.117647 21.082353 129.505882-192.752941-30.117647-21.082353-129.505882 192.752941z m51.2 30.117647l30.117647 21.082353 60.235294-87.341176-30.117647-21.082353-60.235294 87.341176z m42.164706 33.129412l30.117647 21.082353 129.505882-192.752941-30.117647-21.082353-129.505882 192.752941z m27.105882-135.529412l30.117647 21.082353 60.235294-87.341176-30.117647-21.082353-60.235294 87.341176zM1340.235294 682.164706l-30.117647-21.082353L1252.894118 745.411765l30.117647 21.082353 57.223529-84.329412z m27.105882-138.541177l-30.117647-21.082353L1204.705882 715.294118l30.117647 21.082353 132.517647-192.752942z m48.188236 27.105883l-30.117647-21.082353-60.235294 90.352941 30.117647 21.082353 60.235294-90.352941z m-171.670588 48.188235l-30.117648-21.082353-57.223529 84.329412 30.117647 21.082353 57.22353-84.329412z m75.294117-108.423529l-30.117647-21.082353-60.235294 90.352941 30.117647 21.082353 60.235294-90.352941zM1289.035294 290.635294l30.117647-21.082353-57.223529-84.329412-30.117647 21.082353 57.223529 84.329412z m-75.294118-108.423529l30.117648-21.082353-60.235295-90.352941-30.117647 21.082353 60.235294 90.352941z m168.658824 42.164706l30.117647-21.082353-57.223529-84.329412-30.117647 21.082353 57.223529 84.329412z m-72.282353-108.42353l30.117647-21.082353-60.235294-90.352941-30.117647 21.082353 60.235294 90.352941z m27.105882 135.529412l30.117647-21.082353-57.223529-84.329412-30.117647 21.082353 57.223529 84.329412z m-75.294117-105.411765l30.117647-21.082353-60.235294-90.352941-30.117647 21.082353 60.235294 90.352941zM912.564706 380.988235c42.164706 51.2 117.458824 63.247059 168.658823 21.082353 51.2-42.164706 63.247059-117.458824 21.082353-168.658823 81.317647 105.411765 63.247059 252.988235-42.164706 337.317647-105.411765 81.317647-252.988235 63.247059-337.317647-42.164706-42.164706-51.2-30.117647-126.494118 21.082353-168.658824 51.2-42.164706 126.494118-30.117647 168.658824 21.082353zM912.564706 380.988235c-42.164706-51.2-117.458824-63.247059-168.658824-21.082353-51.2 42.164706-63.247059 117.458824-21.082353 168.658824-81.317647-105.411765-63.247059-252.988235 42.164706-337.317647 105.411765-81.317647 252.988235-63.247059 337.317647 42.164706 42.164706 51.2 30.117647 126.494118-21.082353 168.658823-51.2 39.152941-126.494118 30.117647-168.658823-21.082353zM1788.988235 877.929412v-987.858824H18.070588V877.929412h1770.917647M1807.058824 896H0v-1024h1807.058824V896z"  horiz-adv-x="1807" />

    
    <glyph glyph-name="meiguo" unicode="&#58889;" d="M0 896h1807.058824v-1024H0zM0 896h1807.058824v-87.341176H0V896z m0-165.647059h1807.058824v-72.282353H0V730.352941z m0-156.611765h1807.058824v-72.282352H0v72.282352z m0-156.611764h1807.058824v-72.282353H0v72.282353z m0-156.611765h1807.058824v-72.282353H0v72.282353z m0-159.623529h1807.058824v-72.282353H0v72.282353z m0-156.611765h1807.058824V-128H0v72.282353zM18.070588 896h668.611765v-551.152941H18.070588V896zM150.588235 799.623529l3.011765-12.047058h12.047059l-9.035294-3.011765 3.011764-12.047059-9.035294 9.035294-9.035294-9.035294 3.011765 12.047059-9.035294 3.011765h12.047059l3.011764 12.047058z m102.4 0v-12.047058h12.047059l-9.035294-3.011765 3.011765-12.047059-6.02353 9.035294-12.047059-9.035294 3.011765 12.047059-6.023529 3.011765h12.047059l3.011764 12.047058z m102.4 0l3.011765-12.047058h12.047059l-12.047059-3.011765 3.011765-12.047059-6.02353 6.023529-12.047059-6.023529 3.011765 12.047059-6.023529 3.011765h12.047059l3.011764 12.047058z m99.388236 0l3.011764-12.047058h12.047059l-6.023529-3.011765 3.011764-12.047059-12.047058 6.023529-6.02353-6.023529 3.011765 12.047059-6.02353 3.011765h12.047059v12.047058z m105.411764 0l3.011765-12.047058h12.047059l-12.047059-3.011765 3.011765-12.047059-6.02353 6.023529-12.047059-6.023529 3.011765 12.047059-6.023529 3.011765h12.047059l3.011764 12.047058zM99.388235 853.835294l3.011765-12.047059h12.047059l-12.047059-6.023529 3.011765-12.047059-6.02353 9.035294-9.035294-9.035294V835.764706l-6.023529 6.023529h12.047059l3.011764 12.047059z m102.4 0l3.011765-12.047059H210.823529l-6.023529-6.023529 3.011765-12.047059-6.02353 9.035294-12.047059-9.035294 3.011765 12.047059-6.023529 6.023529h12.047059l3.011764 12.047059z m102.4 0l3.011765-12.047059h12.047059l-12.047059-6.023529 3.011765-12.047059-6.02353 6.023529-12.047059-6.023529 3.011765 12.047059-6.023529 6.023529h12.047059l3.011764 12.047059z m102.4 0v-12.047059h12.047059l-9.035294-6.023529 3.011765-12.047059-6.02353 6.023529-12.047059-6.023529 3.011765 12.047059-6.023529 6.023529h12.047059l3.011764 12.047059z m102.4 0l3.011765-12.047059h12.047059L512 835.764706l3.011765-12.047059-6.02353 6.023529-6.023529-6.023529V835.764706l-6.02353 6.023529h12.047059v12.047059z m102.4 0l3.011765-12.047059h6.023529l-6.023529-6.023529 3.011765-12.047059-6.02353 6.023529-12.047059-6.023529 6.02353 12.047059-6.02353 6.023529h12.047059v12.047059zM150.588235 685.176471l3.011765-6.02353h12.047059l-9.035294-9.035294 3.011764-12.047059-9.035294 9.035294-9.035294-6.023529 3.011765 12.047059-9.035294 6.023529h12.047059L150.588235 685.176471z m102.4 0v-6.02353h12.047059l-9.035294-9.035294 3.011765-12.047059-6.02353 9.035294-12.047059-6.023529 3.011765 12.047059-6.023529 6.023529h12.047059l3.011764 6.02353z m102.4 0l3.011765-6.02353h12.047059l-12.047059-6.023529 3.011765-12.047059-6.02353 6.023529-12.047059-6.023529 3.011765 12.047059-6.023529 6.023529h12.047059l3.011764 6.02353z m99.388236 0l3.011764-6.02353h12.047059l-6.023529-6.023529 3.011764-12.047059-12.047058 6.023529-6.02353-6.023529 3.011765 12.047059-6.02353 6.023529h12.047059V685.176471z m105.411764 0l3.011765-6.02353h12.047059l-12.047059-6.023529 3.011765-12.047059-6.02353 6.023529-12.047059-6.023529 3.011765 12.047059-6.023529 6.023529h12.047059l3.011764 6.02353zM99.388235 739.388235l3.011765-12.047059h12.047059l-12.047059-6.023529 3.011765-12.047059-6.02353 9.035294-9.035294-6.023529v9.035294l-6.023529 9.035294h12.047059l3.011764 9.035294z m102.4 0l3.011765-12.047059H210.823529l-6.023529-6.023529 3.011765-12.047059-6.02353 9.035294-12.047059-6.023529 3.011765 12.047059-6.023529 6.023529h12.047059l3.011764 9.035294z m102.4 0l3.011765-12.047059h12.047059l-12.047059-6.023529 3.011765-12.047059-6.02353 6.02353-12.047059-3.011765 3.011765 12.047059-6.023529 6.023529h12.047059l3.011764 9.035294z m102.4 0v-12.047059h12.047059l-6.023529-6.023529 3.011764-12.047059-6.023529 6.02353-12.047059-6.02353 3.011765 12.047059-9.035294 9.035294h12.047059l3.011764 9.035294z m102.4 0l3.011765-9.035294h12.047059l-12.047059-9.035294 3.011765-12.047059-6.02353 6.02353-6.023529-6.02353v12.047059l-6.02353 6.023529h12.047059v12.047059z m102.4 0l3.011765-12.047059h6.023529l-6.023529-6.023529 3.011765-12.047059-6.02353 6.02353-12.047059-6.02353 3.011765 12.047059-6.023529 6.023529h12.047059l3.011764 12.047059zM150.588235 570.729412l3.011765-12.047059h12.047059l-6.02353-6.023529 3.011765-12.047059-12.047059 9.035294-6.023529-6.02353 3.011765 12.047059-12.047059 6.02353h12.047059l3.011764 9.035294z m102.4 0v-12.047059h12.047059l-6.023529-6.023529 3.011764-12.047059-6.023529 6.023529-15.058824-3.011765 3.011765 12.047059-6.023529 6.02353h12.047059l3.011764 9.035294z m102.4 0l3.011765-12.047059h12.047059l-12.047059-6.023529 3.011765-12.047059-6.02353 6.023529-12.047059-6.023529 3.011765 12.047059-6.023529 6.023529h12.047059l3.011764 12.047059z m99.388236 0l3.011764-12.047059h12.047059l-6.023529-6.023529 3.011764-12.047059-12.047058 6.023529-6.02353-6.023529 3.011765 12.047059-6.02353 6.023529h12.047059v12.047059z m105.411764 0l3.011765-12.047059h12.047059l-12.047059-6.023529 3.011765-12.047059-6.02353 6.023529-12.047059-6.023529 3.011765 12.047059-6.023529 6.023529h12.047059l3.011764 12.047059zM99.388235 621.929412l3.011765-12.047059h12.047059-12.047059l3.011765-12.047059-6.02353 3.011765-9.035294-3.011765v12.047059l-6.023529 3.011765h12.047059l3.011764 9.035294z m102.4 0l3.011765-12.047059H210.823529h-6.023529l3.011765-12.047059-6.02353 3.011765-12.047059-3.011765 3.011765 12.047059-6.023529 3.011765h12.047059l3.011764 9.035294z m102.4 0l3.011765-12.047059h12.047059l-12.047059-3.011765 3.011765-12.047059-6.02353 3.011765h-12.047059l3.011765 12.047059-6.023529 3.011765h12.047059l3.011764 9.035294z m102.4 0v-12.047059h12.047059l-6.023529-3.011765 3.011764-12.047059-6.023529 3.011765-12.047059-3.011765 3.011765 12.047059-9.035294 6.02353h12.047059l3.011764 9.035294z m102.4 0l3.011765-9.035294h12.047059l-12.047059-3.011765 3.011765-12.047059-6.02353 3.011765-6.023529-3.011765v12.047059l-6.02353 3.011765h12.047059v9.035294z m102.4 0l3.011765-12.047059h6.023529l-6.023529-3.011765 3.011765-12.047059-6.02353 3.011765-12.047059-3.011765 3.011765 12.047059-6.023529 3.011765h12.047059l3.011764 12.047059zM150.588235 456.282353l3.011765-12.047059h12.047059l-6.02353-6.023529 3.011765-6.02353H150.588235l-6.023529-3.011764 3.011765 6.023529-12.047059 9.035294h12.047059l3.011764 12.047059z m102.4 0v-12.047059h12.047059l-6.023529-6.023529 3.011764-6.02353-6.023529 3.011765-15.058824-6.023529 3.011765 6.023529-6.023529 9.035294h12.047059l3.011764 12.047059z m102.4 0l3.011765-12.047059h12.047059l-12.047059-6.023529 3.011765-6.02353-6.02353 3.011765-12.047059-3.011765 3.011765 6.02353-6.023529 6.023529h12.047059l3.011764 12.047059z m99.388236 0l3.011764-12.047059h12.047059l-6.023529-6.023529 3.011764-6.02353-12.047058 3.011765-6.02353-3.011765 3.011765 6.02353-9.035294 6.023529h12.047059v12.047059z m105.411764 0l3.011765-12.047059h12.047059l-12.047059-6.023529 3.011765-6.02353-6.02353 3.011765-12.047059-3.011765 3.011765 6.02353-6.023529 6.023529h12.047059l3.011764 12.047059zM99.388235 507.482353l3.011765-6.023529h12.047059l-12.047059-6.02353 3.011765-12.047059-6.02353 6.02353-9.035294-9.035294v12.047058l-6.023529 6.02353h12.047059l3.011764 9.035294z m102.4 0l3.011765-6.023529H210.823529l-6.023529-6.02353 3.011765-12.047059-6.02353 6.02353-12.047059-6.02353 3.011765 12.047059-6.023529 6.02353h12.047059l3.011764 6.023529z m102.4 0l3.011765-6.023529h12.047059l-12.047059-6.02353 3.011765-12.047059-6.02353 6.02353-12.047059-6.02353 3.011765 12.047059-6.023529 6.02353h12.047059l3.011764 6.023529z m102.4 0v-6.023529h12.047059l-6.023529-6.02353 3.011764-12.047059-6.023529 6.02353-12.047059-6.02353 3.011765 12.047059-9.035294 3.011765h12.047059l3.011764 9.035294z m102.4 0l3.011765-6.023529h12.047059l-12.047059-9.035295 3.011765-12.047058-6.02353 6.023529-6.023529-6.023529v12.047058l-6.02353 6.02353h12.047059v9.035294z m102.4 0l3.011765-6.023529h6.023529l-6.023529-6.02353 3.011765-12.047059-6.02353 6.02353-12.047059-6.02353 3.011765 12.047059-6.023529 6.02353h12.047059l3.011764 6.023529zM99.388235 399.058824l3.011765-12.047059h12.047059l-12.047059-6.02353 3.011765-12.047059-6.02353 6.02353-9.035294-3.011765V384l-6.023529 6.023529h12.047059l3.011764 9.035295z m102.4 0l3.011765-12.047059H210.823529l-6.023529-6.02353 3.011765-12.047059-6.02353 6.02353-12.047059-6.02353 3.011765 12.047059-6.023529 6.02353h12.047059l3.011764 12.047059z m102.4 0l3.011765-12.047059h12.047059l-12.047059-6.02353 3.011765-12.047059-6.02353 6.02353-12.047059-6.02353 3.011765 12.047059-6.023529 6.02353h12.047059l3.011764 12.047059z m102.4 0v-12.047059h12.047059l-6.023529-6.02353 3.011764-12.047059-6.023529 6.02353-12.047059-6.02353 3.011765 12.047059-9.035294 9.035294h12.047059l3.011764 9.035295z m102.4 0l3.011765-12.047059h12.047059l-12.047059-6.02353 3.011765-12.047059-6.02353 6.02353-6.023529-6.02353v12.047059l-6.02353 6.02353h12.047059v12.047059z m102.4 0l3.011765-12.047059h6.023529l-6.023529-6.02353 3.011765-12.047059-6.02353 6.02353-12.047059-6.02353 3.011765 12.047059-6.023529 6.02353h12.047059l3.011764 12.047059zM1788.988235 877.929412v-987.858824H18.070588V877.929412h1770.917647M1807.058824 896H0v-1024h1807.058824V896z"  horiz-adv-x="1807" />

    
    <glyph glyph-name="taiguo" unicode="&#58891;" d="M0 892.997067h1801.759531v-1020.997067H0V892.997067zM0 724.832845h1801.759531v-684.668622H0V724.832845zM0 550.662757h1801.759531v-330.322581H0v330.322581zM1783.741935 877.982405v-984.961877H18.017595V877.982405h1765.72434M1801.759531 896H0v-1020.997067h1801.759531V896z"  horiz-adv-x="1807" />

    
    <glyph glyph-name="jianada" unicode="&#58892;" d="M0 896h1807.058824v-1024H0V896zM0 896h448.752941v-1024H0V896z m1358.305882 0H1807.058824v-1024H1358.305882V896zM906.541176 724.329412l63.247059-114.447059h6.02353l48.188235 24.094118-21.082353-186.729412h15.058824l69.270588 87.341176 18.070588-48.188235 90.352941 18.070588-27.105882-90.352941v-15.058823l39.152941-21.082353-153.6-123.482353 18.070588-63.247059-138.541176 21.082353h-12.047059l-9.035294-9.035294v-162.635294h-21.082353V203.294118l-6.023529 6.023529h-15.058824l-132.517647-18.070588 15.058823 63.247059-153.6 123.482353 39.152942 21.082353v18.070588l-30.117647 90.352941 93.364705-18.070588 18.070589 48.188235 75.294117-87.341176h12.047059l-30.117647 186.729411 51.2-24.094117h15.058824l63.247058 111.435294zM1788.988235 877.929412v-987.858824H18.070588V877.929412h1770.917647M1807.058824 896H0v-1024h1807.058824V896z"  horiz-adv-x="1807" />

    
    <glyph glyph-name="download" unicode="&#58926;" d="M807.9 90H218c-10.4 0-17.3 6.9-17.3 17.3V280.8c0 10.4 6.9 17.3 17.3 17.3s17.3-6.9 17.3-17.3v-156.1h555.2V280.8c0 10.4 6.9 17.3 17.3 17.3s17.3-6.9 17.3-17.3v-173.5c0.1-10.4-6.8-17.3-17.2-17.3zM526.8 253.1l-1.7-1.7c-3.5-3.5-6.9-3.5-10.4-5.2h-3.4c-3.5 0-8.7 1.7-12.1 5.2l-1.7 1.7L310 442.2c-6.9 6.9-6.9 17.3 0 24.3 6.9 6.9 17.3 6.9 24.3 0l161.3-161.3V662.5c0 10.4 6.9 17.3 17.3 17.3s17.3-6.9 17.3-17.3v-357.4l161.3 163.1c6.9 6.9 17.3 6.9 24.3 0 6.9-6.9 6.9-17.3 0-24.3l-189-190.8zM807.9 83.5H218c-14 0-23.8 9.8-23.8 23.8V280.8c0 14 9.8 23.8 23.8 23.8s23.8-9.8 23.8-23.8v-149.6H784V280.8c0 14 9.8 23.8 23.8 23.8s23.8-9.8 23.8-23.8v-173.5c0.1-14-9.7-23.8-23.7-23.8zM218 291.7c-6.8 0-10.8-4.1-10.8-10.8v-173.5c0-6.8 4.1-10.8 10.8-10.8h589.9c6.8 0 10.8 4.1 10.8 10.8V280.8c0 6.8-4.1 10.8-10.8 10.8-6.8 0-10.8-4.1-10.8-10.8v-162.6H228.9V280.8c0 6.8-4.1 10.9-10.9 10.9z m298.2-52.1h-5c-4.8 0-11.8 2.2-16.7 7.1l-1.7 1.7-187.5 189.2c-4.6 4.6-7.1 10.5-7.1 16.7 0 6.2 2.5 12.2 7.1 16.7 9.5 9.5 23.9 9.5 33.5 0l150.3-150.3V662.5c0 14 9.8 23.8 23.8 23.8s23.8-9.8 23.8-23.8v-341.6L687 472.8c9.6 9.6 24 9.6 33.5 0 9.5-9.5 9.5-23.9 0-33.5L531.4 248.5l-1.7-1.7c-3.4-3.4-6.9-4.6-9.5-5.4-1-0.3-1.9-0.6-2.6-1l-1.4-0.8zM322.1 465.2c-2.7 0-5.4-1.1-7.5-3.3-2.1-2.1-3.3-4.8-3.3-7.5s1.2-5.4 3.3-7.5L502 257.7l1.7-1.7c2.3-2.3 5.8-3.3 7.5-3.3h2.1c1 0.4 1.9 0.7 2.8 1 2.1 0.7 3.2 1.1 4.4 2.3l1.7 1.7 189.1 190.8c4.4 4.4 4.4 10.7 0 15.1s-10.7 4.4-15.1 0L523.8 289.3V662.5c0 6.8-4.1 10.8-10.8 10.8-6.8 0-10.8-4.1-10.8-10.8v-373.1L329.7 461.9c-2.2 2.2-4.9 3.3-7.6 3.3z"  horiz-adv-x="1024" />

    
    <glyph glyph-name="warning" unicode="&#58931;" d="M510.58601899 816.99240485L11.13650702-47.73553285000003h1004.86916597L510.58601899 816.99240485zM512.47132701 227.51943570000003c-21.68104205 0-39.27725009 17.59620803-39.27725009 39.27725007V515.6573422700001c0 21.68104205 17.59620803 39.27725009 39.27725009 39.27725007s39.27725009-17.59620803 39.27725007-39.27725007v-248.8606565c0-21.68104205-17.59620803-39.27725009-39.27725007-39.27725007zM513.57108999 141.10948551m-39.27725006 0a39.27725009 39.27725009 0 1 1 78.55450016 0 39.27725009 39.27725009 0 1 1-78.55450016 0Z"  horiz-adv-x="1024" />

    
    <glyph glyph-name="sync" unicode="&#58927;" d="M950.03953149 384.58915875c-9.27925033 0.58915875-17.23289347-2.06205563-24.00821911-7.80635345s-10.45756784-13.40336159-11.04672659-22.53532224c-4.27140094-50.96223197-17.38018317-99.27324957-39.17905694-145.08034246s-51.40410106-86.16446736-88.81568175-121.07212336c-37.4115807-35.05494569-79.97830047-61.86166887-127.55286963-80.56745923-47.57456915-18.70579035-97.21119393-28.13233036-148.76258467-28.13233036-81.59848704 0-156.27435874 22.38803254-223.73303574 67.16409761-59.50503387 39.32634663-105.31212677 90.58315798-137.27398903 153.77043407h92.05605488c9.27925033 0 17.08560379 3.24037312 23.41906036 9.7211194s9.72111939 14.28709972 9.72111939 23.41906034c0 9.27925033-3.24037312 17.08560379-9.72111939 23.41906038s-14.28709972 9.72111939-23.41906036 9.72111938h-169.38314098c-9.27925033 0-17.08560379-3.24037312-23.41906034-9.72111938-6.48074626-6.48074626-9.72111939-14.28709972-9.72111939-23.41906038v-169.38314095c0-9.27925033 3.24037312-17.08560379 9.72111939-23.41906036 6.48074626-6.48074626 14.28709972-9.72111939 23.41906034-9.72111939 9.27925033 0 17.08560379 3.24037312 23.41906037 9.72111939 6.48074626 6.48074626 9.72111939 14.28709972 9.72111939 23.41906036v79.24185202c36.2332632-61.4197998 84.39699111-112.08745241 144.63847341-152.00295778 78.65269328-52.14054948 165.40631939-78.21082421 260.5554577-78.21082423 60.09419262 0 117.83175024 10.89943689 173.06538317 32.69831069s104.72296802 53.02428761 148.3207156 93.52895175c43.59774757 40.50466414 78.06353453 87.49007455 103.54465051 140.95623121S976.10980624 289.73459980999996 980.38120718 348.65047493c1.17831749 9.27925033-1.17831749 17.38018317-7.36448439 24.45008818-6.1861669 7.06990501-13.84523065 10.89943689-22.9771913 11.48859564z m-0.88373811 353.64254038c-9.27925033 0-17.08560379-3.24037312-23.41906037-9.72111939-6.48074626-6.48074626-9.72111939-14.28709972-9.7211194-23.41906037v-79.24185202c-36.2332632 61.4197998-84.39699111 112.08745241-144.63847341 152.00295781-78.65269328 52.14054948-165.40631939 78.21082421-260.55545769 78.21082422-60.09419262 0-117.83175024-10.89943689-173.06538317-32.6983107s-104.72296802-53.02428761-148.32071561-93.52895175c-43.59774757-40.50466414-78.06353453-87.49007455-103.5446505-140.95623121s-40.65195383-109.58352772-45.51251354-168.49940283c-0.58915875-9.27925033 2.20934532-17.38018317 8.24822252-24.45008818 6.1861669-7.06990501 13.84523065-10.89943689 22.9771913-11.48859564h1.91476592c8.54280189 0 16.05457598 2.94579374 22.53532224 8.69009157 6.48074626 5.89158752 10.01569877 13.10878221 10.60485752 21.6515841 3.68224221 50.96223197 16.64373472 99.27324957 38.73718789 145.08034248s51.84597011 86.16446736 89.25755082 121.07212336 79.97830047 61.86166887 127.55286962 80.56745923 97.21119393 28.13233036 148.76258465 28.13233037c81.59848704 0 156.27435874-22.38803254 223.73303578-67.16409763 59.50503387-39.32634663 105.31212677-90.58315798 137.27398901-153.77043407h-92.05605486c-9.27925033 0-17.08560379-3.24037312-23.41906036-9.72111938-6.48074626-6.48074626-9.72111939-14.28709972-9.72111939-23.41906036 0-9.27925033 3.24037312-17.08560379 9.72111939-23.41906036s14.28709972-9.72111939 23.41906036-9.7211194h169.38314094c9.27925033 0 17.08560379 3.24037312 23.41906037 9.7211194s9.72111939 14.28709972 9.7211194 23.41906036V705.09151937c0 9.27925033-3.24037312 17.08560379-9.7211194 23.41906037-6.62803595 6.48074626-14.4343894 9.72111939-23.56635003 9.72111939z"  horiz-adv-x="1024" />

    
    <glyph glyph-name="success" unicode="&#58930;" d="M512.1472897 855.62158031c-260.40816801 0-471.32700093-211.06612259-471.32700095-471.32700094s211.06612259-471.32700093 471.32700095-471.32700092 471.32700093 211.06612259 471.32700093 471.32700092-211.06612259 471.32700093-471.32700093 471.32700094zM803.63358183 528.34389403L432.02169953 187.66284616999997c-14.72896878-13.69794096-37.70616007-12.81420285-51.40410104 1.76747624l-159.2201525 157.59996596c-13.69794096 14.72896878-12.81420285 37.70616007 1.76747625 51.40410103s37.70616007 12.81420285 51.40410103-1.76747625l133.59174683-132.26613964 345.98347663 317.11469782c14.72896878 13.69794096 37.70616007 12.81420285 51.40410104-1.76747625 13.55065127-14.72896878 12.81420285-37.70616007-1.91476594-51.40410105z"  horiz-adv-x="1024" />

    
    <glyph glyph-name="shuaxin1" unicode="&#58942;" d="M919.99243519 235.65561299c-16.64373472 6.62803595-47.72185885-4.41869063-54.05531542-20.32597691-54.93905355-138.7468859-186.46874474-228.44630576-335.08403974-228.44630577-198.98836821 0-360.71244541 162.75510501-360.71244538 362.77450104s161.87136688 362.77450103 360.71244538 362.77450103c67.6059667 0 133.44445714-18.85308003 190.44556632-54.64447418 1.03102783-0.58915875 2.20934532-1.03102783 3.24037313-1.62018657L629.97903991 621.84917438c-16.05457598-5.74429781-26.65943349-32.99289006-20.91513565-49.04746603 4.56598032-12.66691315 23.41906036-25.18653662 36.0859735-25.18653662 3.5349525 0 11.78317502 0.58915875 15.17083785 1.91476596l173.50725222 76.88521702c8.10093283 2.94579374 14.72896878 8.98467097 18.41121098 16.7910244 3.68224221 7.80635344 4.12411126 16.79102442 1.17831749 25.03924692l-61.71437918 172.18164504c-6.03887719 16.9383141-21.20971504 39.9155054-46.24896197 36.08597351-17.82205222-2.65121438-30.34167568-27.24859225-24.30279849-44.18690634l34.17120757-95.44371769c-68.93157389 41.53569195-147.73155685 63.77643483-228.59359545 63.77643482-245.23733017 0-444.81485714-200.60855477-444.81485713-447.31878183S281.49163861-93.97870828999999 526.72896878-93.97870828999999c183.22837161 0 345.39431787 110.61455552 413.29486395 281.76517275 6.62803595 16.64373472-3.24037312 41.24111259-20.03139754 47.86914853z"  horiz-adv-x="1024" />

    
    <glyph glyph-name="inbox1" unicode="&#58954;" d="M979.79204843 401.52747284l-141.10352091 320.06049158c-6.33345658 19.14765941-24.30279849 32.25644163-44.62877539 32.10915193h-564.11950426c-20.17868721 0-38.14802914-12.96149253-44.62877539-32.10915193l-141.10352091-320.06049158 0.58915876-0.14728967c-1.76747625-4.71327001-2.79850407-9.5738297-2.94579376-14.72896879v-329.04516252c0-25.92298506 21.06242535-46.9854104 46.98541041-46.98541041h846.17925636c25.92298506 0 46.9854104 21.06242535 46.9854104 46.98541041V386.79850407c-0.1472897 5.0078494-1.17831749 10.01569877-2.94579376 14.72896877h0.73644845z m-734.97554208 277.34648211h534.66156668l109.7308174-245.09004048H653.10352091c-25.92298506 0-46.9854104-21.06242535-46.98541041-46.9854104 0-51.84597011-42.12485071-93.97082081-93.9708208-93.97082082s-93.97082081 42.12485071-93.97082083 93.97082082c0 25.92298506-21.06242535 46.9854104-46.9854104 46.9854104H135.08568895l109.7308174 245.09004048z m662.50901569-593.28286242H116.82176766V358.81346338000003h213.12817823c20.91513568-81.00932829 94.55997955-141.10352091 182.05005411-141.10352089s161.13491844 59.94690292 182.05005411 141.10352089h213.12817823v-273.22237085z"  horiz-adv-x="1024" />

    
    <glyph glyph-name="retry" unicode="&#58956;" d="M512.44186907 855.3270009299999C252.77014948 855.3270009299999 42.14589595 644.7027474 42.14589595 385.03102783s210.62425354-470.29597313 470.29597312-470.29597313 470.29597313 210.47696386 470.29597312 470.29597313S772.11358863 855.3270009299999 512.44186907 855.3270009299999z m269.39283896-598.73258088c-42.56671978-107.3741824-144.34389403-176.74762534-259.37714019-176.74762534-153.91772375 0-279.11395837 125.93268306-279.11395838 280.58685524s125.19623462 280.58685525 279.11395838 280.58685524c40.79924353 0 80.86203859-8.98467097 117.68446054-26.21756441l-10.8994369 30.63625504c-2.94579374 8.24822251-1.76747625 18.41121097 3.38766282 26.95401287 4.71327001 7.95364315 12.0777544 13.10878221 20.03139754 14.28709973 13.55065127 2.06205563 31.22541381-4.41869063 39.9155054-28.86877882l37.1170013-103.8392299c2.65121438-7.65906378 2.35663501-16.20186565-1.0310278-23.41906034s-9.5738297-12.96149253-16.93831409-15.7599966l-104.57567834-46.39625165-0.29457938-0.14728969c-4.8605597-1.76747625-12.81420285-1.76747625-12.96149252-1.76747627-12.51962347 0-27.83775099 10.75214722-32.10915194 22.53532224-5.74429781 15.75999659 4.27140094 38.29531883 19.2949491 43.74503728l34.02391789 12.37233377c-27.98504069 13.69794096-58.62129573 20.76784598-89.99399925 20.76784597-113.70763898 0-206.3528526-93.08708268-206.3528526-207.53117007s92.49792395-207.5311701 206.3528526-207.53117011c84.98614986 0 160.25118032 51.25681135 191.77117351 130.64595307 2.65121438 6.92261532 9.13196064 12.66691315 17.96934191 16.49644504 10.16298847 4.41869063 20.91513568 5.0078494 28.8687788 1.91476593 15.61270692-6.33345658 24.45008817-27.39588193 18.1166316-43.30316822z"  horiz-adv-x="1024" />

    
    <glyph glyph-name="upload" unicode="&#58959;" d="M806.9 88H217c-10.4 0-17.3 6.9-17.3 17.3V278.79999999999995c0 10.4 6.9 17.3 17.3 17.3s17.3-6.9 17.3-17.3v-156.1h555.2V278.79999999999995c0 10.4 6.9 17.3 17.3 17.3s17.3-6.9 17.3-17.3v-173.5c0.1-10.4-6.8-17.3-17.2-17.3zM497.7 666.7l1.7 1.7c3.5 3.5 6.9 3.5 10.4 5.2h3.4c3.5 0 8.7-1.7 12.1-5.2l1.7-1.7 187.4-189.1c6.9-6.9 6.9-17.3 0-24.3-6.9-6.9-17.3-6.9-24.3 0L529 614.6v-357.4c0-10.4-6.9-17.3-17.3-17.3s-17.3 6.9-17.3 17.3V614.6l-161.5-163c-6.9-6.9-17.3-6.9-24.3 0s-6.9 17.3 0 24.3l189.1 190.8zM806.9 81.5H217c-14 0-23.8 9.8-23.8 23.8V278.79999999999995c0 14 9.8 23.8 23.8 23.8s23.8-9.8 23.8-23.8v-149.6H783V278.79999999999995c0 14 9.8 23.8 23.8 23.8s23.8-9.8 23.8-23.8v-173.5c0.1-14-9.7-23.8-23.7-23.8zM217 289.70000000000005c-6.8 0-10.8-4.1-10.8-10.8v-173.5c0-6.8 4.1-10.8 10.8-10.8h589.9c6.8 0 10.8 4.1 10.8 10.8V278.79999999999995c0 6.8-4.1 10.8-10.8 10.8-6.8 0-10.8-4.1-10.8-10.8v-162.6H227.9V278.79999999999995c0 6.8-4.1 10.9-10.9 10.9z m291.3 390.4h5c4.8 0 11.8-2.2 16.7-7.1l1.7-1.7 187.4-189.1c4.6-4.6 7.1-10.5 7.1-16.7 0-6.2-2.5-12.2-7.1-16.7-9.5-9.5-23.9-9.5-33.5 0L535.5 599v-341.7c0-14-9.8-23.8-23.8-23.8s-23.8 9.8-23.8 23.8V598.9L337.5 447c-9.6-9.6-24-9.6-33.5 0-9.5 9.5-9.5 23.9 0 33.5l189.1 190.8 1.7 1.7c3.4 3.4 6.9 4.6 9.5 5.4 1 0.3 1.9 0.6 2.6 1l1.4 0.7z m194.1-225.5c2.7 0 5.4 1.1 7.5 3.3 2.1 2.1 3.3 4.8 3.3 7.5s-1.2 5.4-3.3 7.5L522.6 662.1l-1.7 1.7c-2.3 2.3-5.8 3.3-7.5 3.3h-2.1c-1-0.4-1.9-0.7-2.8-1-2.1-0.7-3.2-1.1-4.4-2.3l-1.7-1.7-189.2-190.8c-4.4-4.4-4.4-10.7 0-15.1s10.7-4.4 15.1 0l172.4 174.3v-373.2c0-6.8 4.1-10.8 10.8-10.8 6.8 0 10.8 4.1 10.8 10.8V630.4L694.7 458c2.4-2.3 5.1-3.4 7.7-3.4z"  horiz-adv-x="1024" />

    
    <glyph glyph-name="css" unicode="&#58903;" d="M947.24102741 666.79620057v-734.53367303c0-24.45008817-19.73681815-44.18690634-44.18690632-44.18690633H124.48083143c-24.45008817 0-44.18690634 19.73681815-44.18690635 44.18690633V834.70644464c0 24.45008817 19.73681815 44.18690634 44.18690635 44.18690633H744.71770671M744.71770671 878.89335097l0.73644844-212.0971504h201.78687226zM308.00378242 367.50355497c7.51177407-7.95364315 11.34130596-19.44223878 11.34130595-34.46578694v-61.41979983c0-16.64373472 3.24037312-28.57419943 9.5738297-35.93868381 6.33345658-7.2171947 16.9383141-10.89943689 31.66728289-10.8994369h8.3955122V195.46919964000006h-11.48859566c-24.59737787 0-42.71400945 5.89158752-54.49718449 17.52747284-11.78317502 11.78317502-17.67476253 29.75251694-17.67476252 54.05531542v53.02428761c0 16.64373472-3.38766283 28.13233036-10.01569878 34.61307662-6.62803595 6.48074626-18.55850066 9.72111939-35.79139413 9.72111939v39.47363633c17.23289347 0 29.16335819 3.24037312 35.79139413 9.72111938 6.62803595 6.48074626 10.01569877 17.96934191 10.01569878 34.61307664v52.87699792c0 24.30279849 5.89158752 42.27214039 17.67476252 54.05531544 11.78317502 11.78317502 29.89980661 17.52747284 54.49718449 17.52747283h11.48859566v-29.31064787h-8.3955122c-14.72896878 0-25.18653662-3.68224221-31.66728289-10.89943689-6.33345658-7.2171947-9.5738297-19.2949491-9.5738297-35.93868383V435.55139072c0-15.02354815-3.82953187-26.51214381-11.34130595-34.46578693-7.51177407-7.95364315-19.00036972-12.66691315-34.17120758-14.28709972v-5.00784939c15.17083783-1.47289687 26.65943349-6.33345658 34.17120758-14.28709971zM429.81235422 265.28451164c-5.30242877 5.30242877-7.95364315 11.63588534-7.95364315 19.00036974 0 7.51177407 2.65121438 13.84523065 7.95364315 19.14765939 5.30242877 5.30242877 11.63588534 7.95364315 19.00036972 7.95364313 7.51177407 0 13.84523065-2.65121438 19.14765942-7.95364313 5.30242877-5.30242877 7.95364315-11.63588534 7.95364314-19.14765939 0-7.36448439-2.65121438-13.69794096-7.95364314-19.00036974-5.30242877-5.30242877-11.63588534-7.95364315-19.14765942-7.95364314-7.36448439 0-13.69794096 2.65121438-19.00036972 7.95364314zM556.33419602 265.28451164c-5.30242877 5.30242877-7.95364315 11.63588534-7.95364313 19.00036974 0 7.51177407 2.65121438 13.84523065 7.95364313 19.14765939 5.30242877 5.30242877 11.63588534 7.95364315 19.00036974 7.95364313 7.51177407 0 13.84523065-2.65121438 19.14765939-7.95364313 5.30242877-5.30242877 7.95364315-11.63588534 7.95364315-19.14765939 0-7.36448439-2.65121438-13.69794096-7.95364315-19.00036974-5.30242877-5.30242877-11.63588534-7.95364315-19.14765939-7.95364314-7.36448439 0-13.69794096 2.65121438-19.00036974 7.95364314zM750.31471485 381.79065468v5.00784939c-15.31812754 1.47289687-26.65943349 6.33345658-34.17120756 14.28709972-7.51177407 7.95364315-11.34130596 19.44223878-11.34130598 34.46578693v61.12522045c0 16.64373472-3.24037312 28.57419943-9.5738297 35.93868382-6.33345658 7.2171947-16.9383141 10.89943689-31.66728287 10.89943689h-8.39551221v29.31064786h11.48859565c24.59737787 0 42.71400945-5.89158752 54.49718448-17.52747285 11.78317502-11.78317502 17.67476253-29.75251694 17.67476254-54.05531541v-52.87699791c0-16.64373472 3.38766283-28.13233036 10.01569877-34.61307663 6.62803595-6.48074626 18.55850066-9.72111939 35.79139414-9.72111939v-39.47363633c-17.23289347 0-29.16335819-3.24037312-35.79139414-9.72111941S738.8261192 336.86729990000003 738.8261192 320.22356517000003v-53.02428759c0-24.30279849-5.89158752-42.27214039-17.67476254-54.05531541-11.78317502-11.78317502-29.89980661-17.52747284-54.49718448-17.52747286h-11.48859565V224.92713718000005h8.39551221c14.72896878 0 25.18653662 3.68224221 31.66728287 10.89943689 6.33345658 7.2171947 9.5738297 19.2949491 9.5738297 35.93868383v61.41979982c0 15.02354815 3.82953187 26.51214381 11.34130598 34.46578693 7.51177407 7.80635344 19.00036972 12.66691315 34.17120756 14.13981003z"  horiz-adv-x="1024" />

    
    <glyph glyph-name="bt" unicode="&#58904;" d="M945.76813054 666.79620057v-734.53367303c0-24.45008817-19.73681815-44.18690634-44.18690634-44.18690633H123.00793454c-24.45008817 0-44.18690634 19.73681815-44.18690635 44.18690633V834.70644464c0 24.45008817 19.73681815 44.18690634 44.18690635 44.18690633H743.24480983M743.24480983 878.89335097v-212.0971504h202.52332071zM351.15966094 195.46919964000006H203.72268345V573.11995914h144.49118372c34.7603663 0 62.00895857-8.3955122 81.89306642-25.33382631s29.89980661-39.9155054 29.89980662-68.7842842c0-19.58952848-6.33345658-37.11700133-19.00036972-52.87699792-12.66691315-15.75999659-27.98504069-25.18653662-46.24896197-28.57419944v-4.12411125c25.77569536-3.38766283 46.39625165-13.2560719 61.5670895-29.75251694 15.17083783-16.49644503 22.8299016-37.26429101 22.82990159-62.15624823 0-33.14017975-11.34130596-59.0631648-33.87662818-77.91624486-22.53532223-18.70579035-53.90802574-28.13233036-94.11811049-28.13233035z m-100.15698771 336.11506753V410.51214381H326.41499339c28.57419943 0 50.07849386 5.0078494 64.51288325 15.17083784 14.4343894 10.16298847 21.65158411 25.18653662 21.65158411 45.21793416 0 19.14765941-6.48074626 34.17120756-19.4422388 44.77606508-12.96149253 10.60485751-31.22541381 15.90728628-54.49718448 15.90728628h-87.63736424z m0-294.43208591H344.08975591c28.42690974 0 49.93120416 5.59700814 64.66017295 16.93831411s21.94616349 27.98504069 21.94616348 49.78391448c0 21.79887379-7.65906378 38.29531883-22.82990162 49.34204541-15.31812754 11.04672658-38.00073946 16.64373472-68.19512544 16.64373471h-88.66839205v-132.70800871zM701.41453851 195.46919964000006h-47.13270011V530.70052903H532.6205563v42.41943011h290.45526432v-42.41943011h-121.66128211V195.46919964000006z"  horiz-adv-x="1024" />

    
    <glyph glyph-name="ai" unicode="&#58905;" d="M947.24102741 666.79620057v-734.53367303c0-24.45008817-19.73681815-44.18690634-44.18690632-44.18690633H124.48083143c-24.45008817 0-44.18690634 19.73681815-44.18690635 44.18690633V834.70644464c0 24.45008817 19.73681815 44.18690634 44.18690635 44.18690633H744.71770671M744.71770671 878.89335097l0.73644844-212.0971504h201.78687226zM569.73755762 177.79443708999997c-7.80635344 22.38803254-14.28709972 40.79924353-19.44223879 55.3809226-5.15513907 14.58167909-11.63588534 32.99289006-19.4422388 55.38092262H377.22993567L338.3454581 177.79443708999997h-50.6676526l142.57641776 386.63543045h47.72185885L620.40521023 177.79443708999997h-50.66765261z m-117.83175024 324.18460282c-8.24822251-23.27177067-15.31812754-43.45045791-21.35700472-60.53606167-6.03887719-17.08560379-11.93046471-34.31849726-17.96934191-51.40410105-6.03887719-17.08560379-13.10878221-37.26429101-21.35700474-60.53606167h125.34352431L456.02991866 501.97903991h-4.12411128zM683.73977597 534.82464031c-6.33345658 6.33345658-9.5738297 13.84523065-9.57382972 22.6826119 0 8.98467097 3.24037312 16.49644503 9.57382972 22.82990162 6.33345658 6.1861669 13.84523065 9.42654002 22.68261191 9.42654 8.98467097 0 16.49644503-3.09308345 22.82990161-9.42654 6.1861669-6.1861669 9.42654002-13.84523065 9.42654002-22.82990162 0-8.69009158-3.09308345-16.34915535-9.42654002-22.6826119-6.1861669-6.33345658-13.84523065-9.5738297-22.82990161-9.57382972-8.69009158 0-16.34915535 3.09308345-22.68261191 9.57382972z m-0.29457937-357.03020322v101.3353052 86.01717768V466.48222515h46.10167227v-288.68778806h-46.10167227z"  horiz-adv-x="1024" />

    
    <glyph glyph-name="html" unicode="&#58906;" d="M947.24102741 665.32330367v-734.533673c0-24.45008817-19.73681815-44.18690634-44.18690632-44.18690633H124.48083143c-24.45008817 0-44.18690634 19.73681815-44.18690635 44.18690633V833.23354775c0 24.45008817 19.73681815 44.18690634 44.18690635 44.18690634H744.71770671M744.71770671 877.42045409l0.73644844-212.09715042h201.78687226zM412.72675043 437.90802574c-19.44223878-8.24822251-36.2332632-15.46541722-50.52036291-21.50429443-14.28709972-6.03887719-28.72148912-12.22504409-43.00858883-18.26392128-14.4343894-6.03887719-31.22541381-13.2560719-50.66765261-21.50429442v-1.76747625l144.19660435-63.33456576v-34.46578693L229.20379943 360.13907057999995v28.86877882l183.522951 83.21867359v-34.31849725zM489.31738807 251.58657069000003H460.44860928L538.36485411 515.08782213h28.86877881l-77.91624485-263.50125144zM611.27324957 437.90802574v17.23289346V472.37381268L794.79620057 389.44971845v-28.86877881l-183.522951-83.21867359V311.82805298000005l144.19660435 61.12522044v1.76747625l-144.19660435 63.18727607z"  horiz-adv-x="1024" />

    
    <glyph glyph-name="ppt" unicode="&#58907;" d="M947.24102741 666.79620057v-734.53367303c0-24.45008817-19.73681815-44.18690634-44.18690632-44.18690633H124.48083143c-24.45008817 0-44.18690634 19.73681815-44.18690635 44.18690633V834.70644464c0 24.45008817 19.73681815 44.18690634 44.18690635 44.18690633H744.71770671M744.71770671 878.89335097l0.44186906-212.0971504h202.08145164zM388.42395195 566.19734379h144.93305279c36.38055289 0 65.98578013-11.63588534 88.81568173-34.76036632 22.8299016-23.12448098 34.17120756-53.02428761 34.17120756-89.55213016 0-35.79139413-11.63588534-65.24933169-34.76036631-88.22652299-23.12448098-22.97719129-52.72970823-34.46578693-88.81568174-34.46578694h-96.62203519v-136.97940965H388.27666225V566.19734379z m47.86914852-42.56671976v-161.87136689H520.83738127c27.24859225 0 48.45830729 7.06990501 63.62914513 21.06242537 15.02354815 13.99252034 22.68261193 33.72933851 22.68261191 59.0631648 0 26.36485411-7.36448439 46.69083102-22.24074284 60.68335136-14.87625845 13.99252034-36.0859735 21.06242535-64.0710142 21.06242536h-84.5442808z"  horiz-adv-x="1024" />

    
    <glyph glyph-name="eps" unicode="&#58908;" d="M947.24102741 666.79620057v-734.53367303c0-24.45008817-19.73681815-44.18690634-44.18690632-44.18690633H124.48083143c-24.45008817 0-44.18690634 19.73681815-44.18690635 44.18690633V834.70644464c0 24.45008817 19.73681815 44.18690634 44.18690635 44.18690633H744.71770671M744.71770671 878.89335097l0.44186906-212.0971504h202.08145164zM241.28155386 234.35367721v-31.81457257h-31.66728291v31.81457257h31.66728291m21.20971504 21.06242535h-73.9394233v-74.08671296h73.9394233v74.08671296zM817.92068155 234.35367721v-31.81457257h-31.81457257v31.81457257h31.81457257m21.20971505 21.06242535h-74.08671297v-74.08671296h74.08671297v74.08671296zM476.65047493 520.5375405899999h73.93942328v-73.93942329H476.65047493zM233.180621 242.60189971c24.00821911 133.14987776 140.51436215 234.63247265 280.43956557 234.63247266 140.07249309 0 256.43134645-101.48259488 280.58685523-234.63247266h10.60485753c-24.15550879 139.04146527-145.37492186 245.23733017-291.19171276 245.23733019-145.81679091 0-267.03620397-106.19586491-291.19171276-245.23733019h10.75214719zM815.12217748 496.97119054c-5.74429781 0-9.72111939-4.12411126-11.19401627-9.42654001h-580.3213699c-1.47289687 5.15513907-5.59700814 9.42654002-11.19401628 9.42654001-6.92261532 0-12.51962347-5.59700814-12.51962346-12.51962346s5.59700814-12.51962347 12.51962346-12.51962346c5.74429781 0 9.72111939 4.12411126 11.19401628 9.42654001h580.3213699c1.47289687-5.15513907 5.44971845-9.42654002 11.19401627-9.42654001 6.92261532 0 12.51962347 5.59700814 12.51962346 12.51962346s-5.44971845 12.51962347-12.51962346 12.51962346z"  horiz-adv-x="1024" />

    
    <glyph glyph-name="png" unicode="&#58909;" d="M947.24102741 666.79620057v-734.53367303c0-24.45008817-19.73681815-44.18690634-44.18690632-44.18690633H124.48083143c-24.45008817 0-44.18690634 19.73681815-44.18690635 44.18690633V834.70644464c0 24.45008817 19.73681815 44.18690634 44.18690635 44.18690633H744.71770671M744.71770671 878.89335097v-212.0971504h202.5233207zM325.97312432 571.35248287h125.78539338v-125.78539338h-125.78539338zM577.54391107 571.35248287h125.78539337v-125.78539338h-125.78539337zM451.7585177 445.56708949h125.78539337v-125.78539336h-125.78539337zM325.97312432 319.78169613h125.78539338V193.99630275000004h-125.78539338zM577.54391107 319.78169613h125.78539337V193.99630275000004h-125.78539337z"  horiz-adv-x="1024" />

    
    <glyph glyph-name="pdf" unicode="&#58910;" d="M947.24102741 665.32330367v-734.533673c0-24.45008817-19.73681815-44.18690634-44.18690632-44.18690633H124.48083143c-24.45008817 0-44.18690634 19.73681815-44.18690635 44.18690633V833.23354775c0 24.45008817 19.73681815 44.18690634 44.18690635 44.18690634H744.71770671M744.71770671 877.42045409l-0.88373812-212.09715042h203.40705882zM687.27472846 266.02096009c-36.2332632 2.65121438-71.1409192 16.05457598-99.27324956 40.21008474-54.93905355-12.0777544-107.2268927-29.45793756-159.66202157-50.96223197-41.53569195-73.79213359-80.42016954-111.35100397-114.00221834-111.35100395-6.77532564 0-14.72896878 1.3256072-20.17868724 5.30242874-14.72896878 6.77532564-22.8299016 21.50429441-22.82990161 36.2332632 0 12.0777544 2.65121438 45.65980321 130.05679434 100.59885677 29.45793756 53.61344636 52.28783917 108.6997896 71.14091918 166.29005753-16.05457598 32.25644163-50.96223197 111.35100397-26.80672316 151.56108872 8.10093283 14.72896878 24.15550879 22.8299016 41.53569195 21.50429442 13.40336159 0 26.80672317-6.77532564 34.90765602-17.38018316 17.38018317-24.15550879 16.05457598-75.11774077-6.77532564-150.23548154 21.50429441-40.21008477 49.63662478-76.44334797 83.21867359-107.22689272 28.13233036 5.30242877 56.26466073 9.42654002 84.54428081 9.42654002 63.03998638-1.3256072 72.4665264-30.78354474 71.1409192-48.3110176 0.1472897-45.65980321-44.18690634-45.65980321-67.01680797-45.6598032z m-375.44141417-83.21867362l3.97682157 1.32560718c18.70579035 6.77532564 33.58204881 20.17868721 44.18690634 37.5588704-20.03139755-7.95364315-36.0859735-21.50429441-48.16372791-38.88447758z m178.36781192 402.39542706h-3.97682157c-1.3256072 0-3.97682157 0-5.30242877-1.32560718-5.30242877-22.8299016-1.3256072-46.9854104 8.10093284-68.34241516 7.80635344 22.68261193 7.80635344 46.83812071 1.1783175 69.66802234z m9.42654002-194.56967758l-1.32560719-2.65121438-1.32560719 1.3256072c-12.0777544-30.78354474-25.48111599-61.71437919-40.21008477-91.17231676l2.65121437 1.32560719v-2.65121439c29.45793756 10.75214722 61.71437919 20.17868721 91.17231676 26.80672319l-1.3256072 1.3256072h3.97682158c-20.17868721 20.17868721-38.88447758 43.00858883-53.61344636 65.69120075z m182.34463347-70.99362952c-12.0777544 0-22.8299016 0-34.907656-2.65121438 13.40336159-6.77532564 26.80672317-9.42654002 40.21008476-10.75214722 9.42654002-1.3256072 18.70579035 0 26.80672319 2.6512144 0 3.97682157-5.30242877 10.75214722-32.10915195 10.7521472z"  horiz-adv-x="1024" />

    
    <glyph glyph-name="mp3" unicode="&#58911;" d="M947.24102741 666.79620057v-734.53367303c0-24.45008817-19.73681815-44.18690634-44.18690632-44.18690633H124.48083143c-24.45008817 0-44.18690634 19.73681815-44.18690635 44.18690633V834.70644464c0 24.45008817 19.73681815 44.18690634 44.18690635 44.18690633H744.71770671M744.71770671 878.89335097v-212.0971504h202.5233207zM706.1278085 411.54317163c-2.65121438 0.44186907-5.15513907 2.35663501-7.21719469 5.74429781-2.06205563 3.38766283-3.68224221 9.86840908-4.8605597 19.00036973-1.91476594 15.02354815-6.77532564 26.07027474-14.72896879 33.14017974-7.80635344 7.06990501-20.03139755 12.22504409-36.67513225 15.31812754-17.23289347 3.38766283-32.55102101 10.45756784-45.8070929 21.06242535-13.2560719 10.60485751-24.30279849 20.47326659-33.14017975 29.75251694-8.3955122 8.10093283-15.02354815 10.89943689-19.58952849 8.69009158s-6.92261532-6.48074626-6.92261531-12.66691315V452.63699453c0-21.50429441-0.1472897-44.7760651-0.29457937-69.81531202s-0.29457937-48.60559698-0.29457938-70.84633984v-91.6141858c0.44186907-9.27925033-1.03102783-19.44223878-4.27140095-30.78354475s-9.42654002-21.94616349-18.41121098-31.96186226c-8.98467097-10.01569877-21.06242535-18.55850066-36.0859735-25.62840567-15.02354815-7.06990501-33.58204881-11.19401627-55.97008137-12.37233377-22.68261193-1.17831749-43.15587853 2.94579374-61.41979981 12.0777544-18.26392129 9.27925033-32.40373131 20.91513568-42.41943008 34.907656-10.01569877 13.99252034-14.87625845 29.45793756-14.72896879 46.10167229s7.36448439 32.40373131 21.65158411 46.98541039c14.28709972 14.58167909 29.60522723 24.74466755 46.10167229 30.48896537 16.49644503 5.74429781 32.40373131 8.98467097 47.86914853 9.57382971 15.31812754 0.58915875 29.16335819-0.44186907 41.24111257-3.24037313s21.06242535-5.15513907 26.8067232-7.51177408V451.90054606c0 45.36522383 0.1472897 96.47474551 0.58915874 153.328565 0 11.19401627 2.94579374 20.32597692 8.69009158 27.39588193s13.40336159 11.19401627 23.12448098 12.37233378c8.10093283 1.17831749 14.72896878-0.44186907 19.88410786-4.8605597s10.45756784-10.60485751 15.90728628-18.41121098c5.44971845-7.80635344 12.0777544-16.79102442 19.88410785-26.80672316 7.80635344-10.01569877 18.55850066-19.73681815 31.96186225-29.45793757 11.48859565-8.83738127 21.65158411-15.17083783 30.19438599-19.00036973 8.69009158-3.82953187 16.64373472-7.36448439 24.15550881-10.60485751 7.51177407-3.24037312 14.87625845-7.2171947 22.24074284-11.78317503 7.36448439-4.56598032 15.31812754-12.0777544 24.15550881-22.53532222 8.83738127-10.01569877 14.28709972-20.32597692 16.20186565-31.07812415 1.91476594-10.75214722 2.06205563-20.6205563 0.29457938-29.45793755s-4.56598032-16.05457598-8.3955122-21.6515841c-3.82953187-5.59700814-7.06990501-8.24822251-9.72111941-7.80635344z"  horiz-adv-x="1024" />

    
    <glyph glyph-name="mov" unicode="&#58912;" d="M947.24102741 666.79620057v-734.53367303c0-24.45008817-19.73681815-44.18690634-44.18690632-44.18690633H124.48083143c-24.45008817 0-44.18690634 19.73681815-44.18690635 44.18690633V834.70644464c0 24.45008817 19.73681815 44.18690634 44.18690635 44.18690633H744.71770671M744.71770671 878.89335097v-212.0971504h202.5233207zM650.01043746 349.82879244000003v68.19512545c0 6.77532564 2.20934532 14.72896878 5.44971844 17.9693419l74.67587173 76.88521702c24.45008817 25.18653662 52.58241855 32.25644163 52.58241851 5.30242876v-268.50910083c0-26.95401286-28.13233036-19.88410785-52.58241851 5.30242875l-74.67587173 76.88521703c-3.24037312 3.09308345-5.44971845 11.04672658-5.44971844 17.96934192z m-35.34952507-75.85418922c0-22.8299016-18.55850066-41.38840227-41.38840227-41.38840226h-288.68778807c-22.8299016 0-41.38840227 18.55850066-41.38840227 41.38840226V493.87810709c0 22.8299016 18.55850066 41.38840227 41.38840227 41.38840228h288.68778807c22.8299016 0 41.38840227-18.55850066 41.38840227-41.38840228v-219.90350387z"  horiz-adv-x="1024" />

    
    <glyph glyph-name="wav" unicode="&#58913;" d="M947.24102741 666.79620057v-734.53367303c0-24.45008817-19.73681815-44.18690634-44.18690632-44.18690633H124.48083143c-24.45008817 0-44.18690634 19.73681815-44.18690635 44.18690633V834.70644464c0 24.45008817 19.73681815 44.18690634 44.18690635 44.18690633H744.71770671M744.71770671 878.89335097l-0.88373812-212.0971504h203.40705882zM239.21949821 371.18579715h107.07960303c3.24037312 0 9.42654002-4.27140094 10.60485751-7.2171947l38.29531883-97.06390424 21.50429442 348.04553224c1.03102783 15.75999659 21.06242535 16.20186565 22.8299016 0.58915877l29.60522725-260.55545771 14.87625846 83.21867359c2.65121438 15.02354815 19.88410785 15.02354815 22.53532224 0l22.82990162-128.14202837h43.15587852l20.03139754 190.44556631c1.62018657 15.46541722 20.32597692 15.90728628 22.68261191 0.58915875l38.29531882-248.18312392 10.01569878 102.5136227c1.47289687 14.4343894 15.90728628 16.79102442 21.94616347 3.68224218l35.05494569-77.62166545h63.33456577c15.31812754 0 15.31812754-22.97719129 0-22.97719131h-70.69905014c-15.02354815 0-28.13233036 45.65980321-30.93083445 51.9932598l-14.72896878-150.67735061c-1.47289687-15.46541722-20.32597692-16.05457598-22.82990161-0.58915875L606.26540019 409.77569536l-11.78317504-112.38203178c-0.58915875-5.15513907-6.1861669-10.31027814-11.48859564-10.31027814h-63.18727607c-20.91513568 0-22.53532223 72.76110576-24.59737786 83.95512203l-17.52747284-97.21119394c-2.79850407-15.17083783-20.91513568-14.58167909-22.68261191 0.73644844l-23.71363974 208.41490823-16.64373472-268.9509699c-0.88373813-14.87625845-16.64373472-17.38018317-22.09345317-3.53495251L338.19816841 348.35589556h-99.27324957c-15.02354815-0.1472897-15.02354815 22.8299016 0.29457937 22.82990159z"  horiz-adv-x="1024" />

    
    <glyph glyph-name="ttf" unicode="&#58914;" d="M947.24102741 666.79620057v-734.53367303c0-24.45008817-19.73681815-44.18690634-44.18690632-44.18690633H124.48083143c-24.45008817 0-44.18690634 19.73681815-44.18690635 44.18690633V834.70644464c0 24.45008817 19.73681815 44.18690634 44.18690635 44.18690633H744.71770671M744.71770671 878.89335097l0.73644844-212.0971504h201.78687226zM495.50355497 248.19890785999996c-5.74429781 16.20186565-10.45756784 29.60522723-14.13981003 40.06279508-3.68224221 10.60485751-8.3955122 23.86092942-14.13981004 40.06279508H355.87293093l-28.13233036-80.12559016H291.0654683L394.31553946 528.34389403h34.61307663l103.25007112-280.14498617h-36.67513224z m-85.42801892 234.92705203c-5.89158752-16.79102442-11.04672658-31.51999319-15.46541722-43.89232697-4.27140094-12.37233377-8.69009158-24.89195725-12.96149252-37.26429101-4.27140094-12.37233377-9.42654002-27.10130255-15.46541722-43.89232697h90.87773736l-43.89232696 125.04894495h-3.09308344zM584.76110576 261.30769006c-13.40336159 11.19401627-20.03139755 26.36485411-20.03139753 45.51251353 0 38.29531883 25.48111599 58.91587511 76.29605828 62.00895858l60.388772 3.68224218v19.00036972c0 26.65943349-15.75999659 40.06279507-47.42727947 40.06279508-12.51962347 0-22.97719129-2.20934532-31.22541381-6.77532562-8.24822251-4.56598032-13.55065127-10.89943689-15.9072863-19.29494912h-33.7293385c2.20934532 16.79102442 10.89943689 30.34167568 26.07027476 40.50466416 15.17083783 10.16298847 33.87662819 15.17083783 56.11737104 15.17083784 25.48111599 0 45.21793415-6.1861669 58.9158751-18.55850068 13.84523065-12.37233377 20.6205563-29.45793756 20.6205563-51.10952166v-143.31286621h-31.81457256v30.93083443h-3.09308344c-6.77532564-11.19401627-15.61270692-19.73681815-26.80672319-25.62840567-11.19401627-5.89158752-23.71363973-8.98467097-37.70616006-8.98467095-20.47326659 0-37.26429101 5.59700814-50.66765262 16.79102439z m99.56782896 27.54317163c11.34130596 10.01569877 16.9383141 22.53532223 16.93831409 37.41158069v19.29494911l-56.26466075-3.6822422c-30.48896537-2.06205563-45.80709291-13.40336159-45.80709287-34.17120756 0-10.60485751 3.97682157-18.85308003 12.07775438-24.89195723 7.95364315-5.89158752 18.11663161-8.98467097 30.34167569-8.98467097 17.08560379 0 31.3727035 5.0078494 42.71400946 15.02354816z"  horiz-adv-x="1024" />

    
    <glyph glyph-name="txt" unicode="&#58915;" d="M947.24102741 665.32330367v-734.533673c0-24.45008817-19.73681815-44.18690634-44.18690632-44.18690633H124.48083143c-24.45008817 0-44.18690634 19.73681815-44.18690635 44.18690633V833.23354775c0 24.45008817 19.73681815 44.18690634 44.18690635 44.18690634H744.71770671M744.71770671 877.42045409l-0.88373812-212.09715042h203.40705882zM286.35219831 253.50133661999996h-32.40373131V483.71511862H170.28792432v29.16335819h199.57752698v-29.16335819h-83.66054268v-230.213782zM403.00563103 253.50133661999996c11.93046471 17.67476253 22.38803254 32.84560039 31.2254138 45.80709291s17.67476253 25.92298506 26.36485411 38.88447756c8.83738127 12.96149253 19.14765941 28.27962006 31.22541385 45.80709291l-87.78465394 128.87847681h39.03176726l68.34241514-103.25007115h2.94579376l69.37344295 103.25007115h36.82242193l-89.84670954-130.35137368 87.9319436-129.02576651H579.75325639l-67.90054609 102.36633302h-2.94579375l-69.22615326-102.36633302H403.00563103zM769.60966395 253.50133661999996h-32.40373131V483.71511862h-83.66054268v29.16335819h199.57752696v-29.16335819h-83.66054267v-230.213782z"  horiz-adv-x="1024" />

    
    <glyph glyph-name="ps" unicode="&#58916;" d="M947.24102741 666.79620057v-734.53367303c0-24.45008817-19.73681815-44.18690634-44.18690632-44.18690633H124.48083143c-24.45008817 0-44.18690634 19.73681815-44.18690635 44.18690633V834.70644464c0 24.45008817 19.73681815 44.18690634 44.18690635 44.18690633H744.71770671M744.71770671 878.89335097l0.73644844-212.0971504h201.78687226zM303.4378021 528.7857630999999H413.31590918c27.54317163 0 49.93120416-8.69009158 67.16409763-26.21756443 17.23289347-17.52747284 25.92298506-40.06279507 25.92298505-67.75325639 0-27.10130255-8.69009158-49.34204541-26.21756443-66.72222856-17.52747284-17.38018317-39.9155054-26.07027474-67.16409763-26.07027475H339.67106528V238.18320909h-36.23326318V528.7857630999999z m36.23326318-32.25644163v-122.39773055h64.07101419c20.6205563 0 36.67513227 5.30242877 48.16372791 15.90728627 11.34130596 10.60485751 17.08560379 25.48111599 17.08560379 44.77606509 0 20.03139755-5.59700814 35.34952507-16.79102442 45.95438261-11.19401627 10.60485751-27.39588193 15.90728628-48.45830728 15.90728628H339.67106528zM579.16409763 441.00110917c15.46541722 12.0777544 34.7603663 18.11663161 57.73755761 18.1166316 22.8299016 0 41.53569195-5.30242877 56.26466075-15.75999659s23.12448098-24.59737787 25.48111598-42.41943008h-34.17120756c-2.35663501 8.69009158-7.51177407 15.75999659-15.7599966 20.91513566-8.24822251 5.30242877-18.85308003 7.80635344-31.96186224 7.80635345-12.96149253 0-23.71363973-2.94579374-32.551021-8.98467094s-13.2560719-13.84523065-13.25607191-23.41906037c0-7.36448439 3.09308345-13.55065127 9.27925033-18.41121097 6.1861669-4.8605597 15.61270692-8.83738127 28.42690974-11.93046472l33.43475912-8.10093283c20.47326659-5.0078494 35.64410444-12.0777544 45.65980323-21.5042944 10.01569877-9.27925033 15.02354815-21.79887379 15.02354815-37.41158071 0-19.44223878-8.3955122-35.20223538-25.03924692-47.42727946-16.64373472-12.0777544-37.26429101-18.26392129-62.00895856-18.26392129-24.15550879 0-44.03961664 5.30242877-59.35774418 16.05457597-15.46541722 10.75214722-24.15550879 25.03924691-25.92298506 43.15587853h35.64410445c2.94579374-9.13196064 8.69009158-16.34915535 17.38018316-21.79887382 8.54280189-5.44971845 19.73681815-8.10093283 33.58204881-8.10093281 14.58167909 0 26.65943349 3.09308345 36.08597351 9.42654 9.42654002 6.33345658 14.13981003 14.4343894 14.13981002 24.30279851 0 7.51177407-2.79850407 13.84523065-8.54280188 18.85308004-5.74429781 5.0078494-14.28709972 8.98467097-25.92298505 11.78317501l-37.264291 9.13196065c-20.32597692 5.0078494-35.20223538 12.0777544-44.77606511 21.35700474-9.5738297 9.27925033-14.4343894 21.79887379-14.4343894 37.41158068-0.44186907 18.11663161 7.36448439 33.14017975 22.82990161 45.21793415z"  horiz-adv-x="1024" />

    
    <glyph glyph-name="word" unicode="&#58917;" d="M947.24102741 666.79620057v-734.53367303c0-24.45008817-19.73681815-44.18690634-44.18690632-44.18690633H124.48083143c-24.45008817 0-44.18690634 19.73681815-44.18690635 44.18690633V834.70644464c0 24.45008817 19.73681815 44.18690634 44.18690635 44.18690633H744.71770671M744.71770671 878.89335097v-212.0971504h202.5233207zM510.82168251 437.90802574c-7.65906378-26.36485411-14.58167909-49.93120416-20.6205563-70.55176046-6.03887719-20.76784598-12.51962347-42.71400945-19.14765942-65.98578013s-13.10878221-45.21793415-19.14765941-65.98578014c-6.03887719-20.76784598-12.96149253-44.18690634-20.62055629-70.55176044h-40.79924352l-94.2654002 345.98347661h45.07064447l68.78428421-281.17601398h2.94579375l77.47437579 281.17601398H534.09345317l77.47437579-281.17601398h2.94579374l68.78428419 281.17601398h45.07064448l-94.26540019-345.98347661h-40.79924352l-79.53643141 273.07508117h-2.94579374z"  horiz-adv-x="1024" />

    
    <glyph glyph-name="xls" unicode="&#58918;" d="M945.76813054 666.79620057v-734.53367303c0-24.45008817-19.73681815-44.18690634-44.18690634-44.18690633H123.00793454c-24.45008817 0-44.18690634 19.73681815-44.18690635 44.18690633V834.70644464c0 24.45008817 19.73681815 44.18690634 44.18690635 44.18690633H743.24480983M743.24480983 878.89335097v-212.0971504h202.52332071zM352.33797843 187.36826681000002c17.67476253 26.07027474 33.14017975 48.75288667 46.10167227 67.90054605s26.07027474 38.29531883 39.17905696 57.44297824 28.42690974 41.83027133 46.10167228 67.90054607l-129.90950462 190.7401457h57.7375576l101.18801553-152.73940623h4.27140095l102.66091237 152.73940623h54.49718448l-133.00258806-192.94949101 130.05679432-191.03472505h-57.44297825l-100.59885677 151.41379904H509.05420626l-102.51362272-151.41379904h-54.20260511z"  horiz-adv-x="1024" />

    
    <glyph glyph-name="raw" unicode="&#58919;" d="M947.24102741 666.79620057v-734.53367303c0-24.45008817-19.73681815-44.18690634-44.18690632-44.18690633H124.48083143c-24.45008817 0-44.18690634 19.73681815-44.18690635 44.18690633V834.70644464c0 24.45008817 19.73681815 44.18690634 44.18690635 44.18690633H744.71770671M744.71770671 878.89335097l-0.88373812-212.0971504h203.40705882zM751.64032205 382.52710313c0-132.11884995-106.93231333-239.05116329-239.0511633-239.05116329-131.97156027 0-239.19845297 107.2268927-239.19845297 239.05116329 0 131.82427057 107.2268927 239.05116329 239.05116329 239.05116327 132.26613965 0 239.19845297-106.93231333 239.19845298-239.05116327zM685.35996253 478.1181105c-28.42690974 49.48933509-70.40447077 82.48222515-127.11100056 96.47474551l-44.18690634-130.79324276 171.2979069 34.31849725zM548.52784258 389.74429781l-24.15550881 27.69046132-36.0859735-7.21719469-11.78317503-34.90765602 24.1555088-27.69046131 36.08597351 7.2171947 11.78317503 34.907656zM516.12411126 580.0425744500001h-3.53495251c-55.97008134 0-105.16483708-22.24074286-143.46015591-61.86166888l91.02502705-103.6919402 55.97008137 165.55360908zM343.35330748 484.30427739c-18.70579035-31.81457257-28.42690974-64.36559357-28.42690975-101.77717426 0-19.88410785 2.79850407-37.70616007 8.24822253-56.55924012l135.35922308 27.10130256-115.18053586 131.23511182zM339.81835498 286.93609574000004c28.42690974-49.48933509 71.1409192-82.62951485 126.96371087-96.4747455l44.18690632 130.64595308-171.15061719-34.17120758zM508.90691655 185.01163179000002h3.53495252c55.97008134 0 105.16483708 22.24074286 143.46015591 61.86166887l-91.02502706 103.69194021-55.97008137-165.55360908zM681.67772034 280.74992885999995c18.70579035 31.81457257 28.27962006 64.36559357 28.27962004 101.77717427 0 19.88410785-2.79850407 37.70616007-8.24822249 56.5592401L566.34989479 411.98504069l115.32782555-131.23511183z"  horiz-adv-x="1024" />

    
    <glyph glyph-name="avi" unicode="&#58920;" d="M945.76813054 665.32330367v-734.533673c0-24.45008817-19.73681815-44.18690634-44.18690634-44.18690633H123.00793454c-24.45008817 0-44.18690634 19.73681815-44.18690635 44.18690633V833.23354775c0 24.45008817 19.73681815 44.18690634 44.18690635 44.18690634H743.24480983M743.24480983 877.42045409v-212.09715042h202.52332071zM511.70542063 626.29153643c-133.29716746 0-241.26050861-108.11063085-241.2605086-241.2605086 0-133.29716746 107.96334115-241.40779829 241.2605086-241.40779829 133.29716746 0 241.40779829 107.96334115 241.40779828 241.40779829 0 133.14987776-108.11063085 241.26050861-241.40779828 241.2605086z m0-456.89261153c-118.86277805 0-215.48481325 96.76932489-215.48481326 215.63210293S392.98993226 600.5158410500001 511.70542063 600.5158410500001c118.86277805 0 215.63210293-96.62203518 215.63210292-215.48481322 0-119.01006774-96.62203518-215.63210293-215.63210292-215.63210293zM511.70542063 136.25874513999997c-137.12669934 0-248.62499299 111.49829366-248.62499299 248.77228269 0 137.12669934 111.49829366 248.62499299 248.62499299 248.62499297 137.12669934 0 248.77228269-111.49829366 248.77228268-248.62499297 0-137.12669934-111.49829366-248.77228269-248.77228268-248.77228269z m0 482.66830687c-129.02576651 0-233.89602421-105.01754739-233.89602421-233.89602418 0-129.02576651 104.87025771-234.0433139 233.89602421-234.04331392 129.02576651 0 234.0433139 105.01754739 234.04331389 234.04331392 0 128.87847681-105.01754739 233.89602421-234.04331389 233.89602418z m0-456.89261151c-122.83959962 0-222.84929763 100.00969801-222.84929763 222.99658733 0 122.83959962 100.00969801 222.84929763 222.84929763 222.84929761 122.98688932 0 222.99658731-100.00969801 222.99658732-222.84929761 0-122.98688932-100.00969801-222.99658731-222.99658732-222.99658733z m0 431.11691616c-114.73866679 0-208.12032885-93.38166206-208.12032885-208.12032883 0-114.88595647 93.38166206-208.26761854 208.12032885-208.26761856 114.88595647 0 208.26761854 93.38166206 208.26761853 208.26761856 0 114.73866679-93.38166206 208.12032885-208.26761853 208.12032883zM439.09160453 254.53236443000003l224.61677389 129.61492527-224.61677389 129.61492524z"  horiz-adv-x="1024" />

    
    <glyph glyph-name="rar" unicode="&#58921;" d="M896.8679542-88.50531842999999h-765.90637651c-48.60559698 0-88.37381268 39.7682157-88.37381269 88.37381266V383.70542063000005h942.65400188v-383.8369264c0-48.60559698-39.7682157-88.37381268-88.37381268-88.37381266zM985.24176688 383.8527103h-942.65400188V765.77487075c0 48.60559698 39.7682157 88.37381268 88.37381269 88.37381268h765.90637651c48.60559698 0 88.37381268-39.7682157 88.37381268-88.37381268v-381.92216045zM42.587765 529.6695012299999h942.65400188v-294.57937558h-942.65400188zM396.08301571 854.88513187h235.66350046v-942.65400186h-235.66350046zM679.32108532 243.92750691000003H348.36115687c-25.92298506 0-47.1327001 21.20971504-47.1327001 47.13270009V476.20334457c0 25.92298506 21.20971504 47.1327001 47.1327001 47.13270009h331.10721815c25.92298506 0 47.1327001-21.20971504 47.13270008-47.13270009V291.20749668999997c-0.1472897-26.07027474-21.20971504-47.27998978-47.27998978-47.27998978z m-319.17675344 58.91587513h307.54086812V464.42016954H360.14433188v-161.5767875z"  horiz-adv-x="1024" />

    
    <glyph glyph-name="zip" unicode="&#58922;" d="M947.24102741 666.79620057v-734.53367303c0-24.45008817-19.73681815-44.18690634-44.18690632-44.18690633H124.48083143c-24.45008817 0-44.18690634 19.73681815-44.18690635 44.18690633V834.70644464c0 24.45008817 19.73681815 44.18690634 44.18690635 44.18690633H744.71770671M744.71770671 878.89335097v-212.0971504h202.5233207zM467.2239349 878.89335097h45.07064447v-45.07064445h-45.07064447V878.89335097z m0-90.14128892h45.07064447v-45.07064447h-45.07064447v45.07064447z m45.07064447 45.07064447h45.07064446v-45.07064447h-45.07064446v45.07064447zM512.29457937 743.5341278999999h45.07064446v-45.07064448h-45.07064446v45.07064448z m-45.07064447-45.07064448h45.07064447v-45.07064445h-45.07064447v45.07064445zM512.29457937 653.39283897h45.07064446v-45.07064447h-45.07064446v45.07064447z m-45.07064447-45.07064447h45.07064447v-45.07064446h-45.07064447v45.07064446z m45.07064447-45.07064446h45.07064446V518.03361589h-45.07064446v45.21793415zM467.2239349 518.18090557h45.07064447v-45.07064446h-45.07064447v45.07064446z m-9.57382969-71.28820889h109.7308174v-144.78576309h-109.7308174v144.78576309zM301.81761552-2.4881407699999727v18.41121097l117.53717086 163.49155347v2.356635H305.79443709v23.27177066h146.99510841V186.63181837000002l-116.94801209-163.49155344v-2.35663503h119.45193678v-23.27177067H301.81761552zM528.34915535-2.4881407699999727h-25.92298505V205.04302932999997h25.92298505v-207.5311701zM581.22615326 205.04302932999997h78.35811391c19.58952848 0 35.64410444-6.1861669 48.01643822-18.70579034 12.37233377-12.51962347 18.41121097-28.72148912 18.41121096-48.45830729 0-19.44223878-6.1861669-35.20223538-18.70579033-47.72185884-12.51962347-12.37233377-28.57419943-18.55850066-48.01643822-18.55850067h-52.14054949v-74.08671296H581.22615326V205.04302932999997z m25.92298505-22.97719128v-87.34278486h45.8070929c14.72896878 0 26.21756444 3.82953187 34.31849725 11.34130595s12.22504409 18.26392129 12.22504409 31.96186225c0 14.28709972-3.97682157 25.18653662-12.07775438 32.84560038-7.95364315 7.51177407-19.58952848 11.34130596-34.61307664 11.34130596h-45.65980322z"  horiz-adv-x="1024" />

    
    <glyph glyph-name="jpg" unicode="&#58924;" d="M945.76813054 666.79620057v-734.53367303c0-24.45008817-19.73681815-44.18690634-44.18690634-44.18690633H123.00793454c-24.45008817 0-44.18690634 19.73681815-44.18690635 44.18690633V834.70644464c0 24.45008817 19.73681815 44.18690634 44.18690635 44.18690633H743.24480983M743.24480983 878.89335097v-212.0971504h202.52332071zM295.33686926 504.77754399v-291.48629215c0-6.92261532 5.59700814-12.51962347 12.51962345-12.51962345h450.85373435c9.5738297 0 17.23289347 7.65906378 17.23289346 17.23289348V504.77754399c0 6.92261532-5.59700814 12.51962347-12.51962345 12.51962347H308.00378242c-7.06990501 0-12.66691315-5.59700814-12.66691316-12.51962347z m460.8694331-19.88410785v-60.09419261l-198.54649915-108.99436897-123.72333774 77.62166546-118.71548836-64.66017294v156.12706906c0 6.92261532 5.59700814 12.51962347 12.51962346 12.51962345h415.94607833c6.92261532 0.1472897 12.51962347-5.59700814 12.51962346-12.51962345z m-440.98532525-251.86536611v73.05568513l117.97903992 64.36559357 123.72333774-77.76895515 199.28294759 109.43623803v-169.23585129c0-6.92261532-5.59700814-12.51962347-12.51962346-12.51962345H327.74060057c-6.92261532 0.1472897-12.51962347 5.74429781-12.51962346 12.66691316zM758.85751673 194.43817181999998H308.00378242c-10.45756784 0-18.85308003 8.3955122-18.85308005 18.85308002V504.77754399c0 10.45756784 8.3955122 18.85308003 18.85308005 18.85308004h455.56700434c10.45756784 0 18.85308003-8.3955122 18.85308002-18.85308004v-286.77302212c-0.1472897-12.96149253-10.75214722-23.56635005-23.56635005-23.56635005zM308.00378242 510.96371088c-3.38766283 0-6.33345658-2.79850407-6.33345659-6.33345658V213.14396217c0-3.38766283 2.79850407-6.33345658 6.33345659-6.33345659h450.85373431c6.03887719 0 10.89943689 4.8605597 10.8994369 10.89943691V504.77754399c0 3.38766283-2.79850407 6.33345658-6.33345656 6.33345656H308.00378242z m435.68289648-296.78872091H327.74060057c-10.45756784 0-18.85308003 8.3955122-18.85308003 18.85308006v76.88521701l124.45978618 67.90054606 123.72333774-77.76895514L762.39246924 412.86877882v-179.84070879c0.1472897-10.31027814-8.3955122-18.85308003-18.70579034-18.85308006z m-422.13224521 88.22652299v-69.37344293c0-3.38766283 2.79850407-6.33345658 6.33345657-6.33345659h415.94607833c3.38766283 0 6.33345658 2.79850407 6.33345657 6.33345659V391.65906378l-193.24407039-106.04857521-123.72333774 77.76895513-111.64558334-60.97793074z m235.81079014 6.1861669l-123.72333774 77.62166546-124.75436555-68.04783577V484.89343614c0 10.45756784 8.3955122 18.85308003 18.85308003 18.85308003h415.94607833c10.45756784 0 18.85308003-8.3955122 18.85308003-18.85308003v-63.77643481l-205.1745351-112.52932147z m-123.28146867 92.20334456l123.72333775-77.62166547 192.06575287 105.45941645v56.41195042c0 3.38766283-2.79850407 6.33345658-6.33345656 6.33345658H327.74060057c-3.38766283 0-6.33345658-2.79850407-6.33345658-6.33345658v-145.66950122l112.67661117 61.41979982zM573.12522043 375.01532903c28.42690974 0 51.55139072 23.12448098 51.55139074 51.69868042 0 28.42690974-23.12448098 51.55139072-51.55139074 51.55139074s-51.69868042-23.12448098-51.69868041-51.55139074c0-28.57419943 23.27177067-51.69868042 51.69868041-51.69868042z m0 83.36596331c17.52747284 0 31.81457257-14.28709972 31.81457257-31.81457256 0-17.52747284-14.28709972-31.81457257-31.81457257-31.81457256-17.67476253 0-31.81457257 14.28709972-31.81457256 31.81457256 0 17.67476253 14.13981003 31.81457257 31.81457256 31.81457256zM573.12522043 368.68187246c-31.96186226 0-57.88484731 25.92298506-57.88484731 57.88484732 0 31.96186226 25.92298506 57.88484731 57.88484731 57.8848473 31.96186226 0 57.88484731-25.92298506 57.88484731-57.8848473 0-31.81457257-25.92298506-57.88484731-57.88484731-57.88484732z m0 103.25007116c-25.03924691 0-45.36522383-20.32597692-45.36522384-45.36522384s20.32597692-45.36522383 45.36522384-45.36522385 45.36522383 20.32597692 45.36522384 45.36522385-20.32597692 45.36522383-45.36522384 45.36522384z m0-83.3659633c-21.06242535 0-38.14802914 17.08560379-38.14802914 38.14802913 0 21.06242535 17.08560379 38.14802914 38.14802914 38.14802914 21.06242535 0 38.14802914-17.08560379 38.14802914-38.14802914 0-21.06242535-17.08560379-38.14802914-38.14802914-38.14802913z m0 63.62914512c-14.13981003 0-25.62840566-11.48859565-25.62840567-25.48111599 0-14.13981003 11.48859565-25.62840566 25.62840567-25.62840566 14.13981003 0 25.48111599 11.48859565 25.48111599 25.62840566 0 13.99252034-11.34130596 25.48111599-25.48111599 25.48111599zM251.44454229 554.1195894v-294.13750652a9.86840908 9.86840908 0 0 1 19.73681817 0V534.23548155c0 6.92261532 5.59700814 12.51962347 12.51962347 12.51962346H722.03509479a9.86840908 9.86840908 0 0 1 0 19.73681816h-458.07092903c-6.92261532 0.1472897-12.51962347-5.44971845-12.51962347-12.37233377zM261.31295137 243.78021721000005c-8.98467097 0-16.20186565 7.2171947-16.20186565 16.20186567V554.1195894c0 10.45756784 8.3955122 18.85308003 18.85308004 18.85308004h458.07092903c8.98467097 0 16.20186565-7.2171947 16.20186566-16.20186567s-7.2171947-16.20186565-16.20186566-16.20186565H283.70098393c-3.38766283 0-6.33345658-2.79850407-6.33345658-6.33345657v-274.25339867c0-8.98467097-7.2171947-16.20186565-16.05457598-16.20186567z m2.65121439 316.52553908c-3.38766283 0-6.33345658-2.79850407-6.33345657-6.33345659v-294.13750652c0-1.91476594 1.62018657-3.5349525 3.53495251-3.5349525 1.91476594 0 3.5349525 1.62018657 3.53495249 3.5349525V534.23548155c0 10.45756784 8.3955122 18.85308003 18.85308005 18.85308004h438.33411086c2.06205563 0 3.5349525 1.62018657 3.5349525 3.5349525 0 2.06205563-1.62018657 3.5349525-3.5349525 3.5349525H263.96416576z"  horiz-adv-x="1024" />

    
    <glyph glyph-name="wenjianjia" unicode="&#58923;" d="M689.74010469 411.1853037H84.41400889c-26.40858075 0-48.02736987 21.61878914-48.02736987 48.02736988V697.2782617299999c0 26.40858075 21.61878914 48.02736987 48.02736987 48.02736988h605.3260958c26.40858075 0 48.02736987-21.61878914 48.02736988-48.02736988v-238.06558815c0-26.40858075-21.61878914-48.02736987-48.02736988-48.02736988zM938.16199902 20.234745689999954H88.16816987c-28.60929581 0-51.78153086 23.17223506-51.78153085 51.78153084V573.5204029700001c0 28.60929581 23.17223506 51.78153086 51.78153085 51.78153086h849.99382915c28.60929581 0 51.78153086-23.17223506 51.78153085-51.78153086V72.01627653000003c0-28.60929581-23.17223506-51.78153086-51.78153085-51.78153084z"  horiz-adv-x="1024" />

    
    <glyph glyph-name="inbox" unicode="&#58925;" d="M979.79204843 401.52747284l-141.10352091 320.06049158c-6.33345658 19.14765941-24.30279849 32.25644163-44.62877539 32.10915193h-564.11950426c-20.17868721 0-38.14802914-12.96149253-44.62877539-32.10915193l-141.10352091-320.06049158 0.58915876-0.14728967c-1.76747625-4.71327001-2.79850407-9.5738297-2.94579376-14.72896879v-329.04516252c0-25.92298506 21.06242535-46.9854104 46.98541041-46.98541041h846.17925636c25.92298506 0 46.9854104 21.06242535 46.9854104 46.98541041V386.79850407c-0.1472897 5.0078494-1.17831749 10.01569877-2.94579376 14.72896877h0.73644845z m-746.7587171 289.12965714h558.22791672l109.73081741-256.87321551H653.10352091c-25.92298506 0-46.9854104-21.06242535-46.98541041-46.9854104 0-51.84597011-42.12485071-93.97082081-93.9708208-93.97082082s-93.97082081 42.12485071-93.97082083 93.97082082c0 25.92298506-21.06242535 46.9854104-46.9854104 46.9854104H123.30251393l109.7308174 256.87321551z m686.07536573-616.84921247l-814.07010443-2.94579374V370.59663840999997h224.91135326c20.91513568-81.00932829 94.55997955-141.10352091 182.05005411-141.10352091s161.13491844 59.94690292 182.05005411 141.10352091h224.91135326v-299.73451464l0.14728969 2.94579374z"  horiz-adv-x="1024" />

    
    <glyph glyph-name="qita" unicode="&#58928;" d="M947.22629844 665.32330367v-734.51894404c0-24.4353592-19.81046301-44.23109325-44.23109322-44.23109324H124.46610245c-24.4353592 0-44.23109325 19.81046301-44.23109324 44.23109324V833.18936085c0 24.4353592 19.81046301 44.23109325 44.23109324 44.23109324h620.28106221M744.74716466 877.42045409l0.45659801-212.09715042h202.02253577zM525.19715602 270.92570668999997v-24.21442468h-37.67670214v26.90982595c0 48.44357831 24.21442467 89.6846909 72.65800299 123.78225363 60.96320177 39.44417839 88.80095277 79.80155284 83.42487917 121.08685233-7.18773676 62.77486494-45.74817703 96.87242767-115.71077873 102.24850126-78.96200163 1.76747625-127.39085097-38.60462717-145.31600596-121.08685232l-43.05277576 13.44754848c23.28649965 100.45156708 88.80095277 147.99667829 196.44025662 142.6206047 93.26383031-5.3760736 143.50434283-52.05217567 150.69207958-139.92520342 5.3760736-55.63131508-28.72148912-104.06016443-102.24850127-145.31600595-41.30002846-25.14234971-61.02211765-58.31198739-59.2104545-99.55309998z m5.37607361-158.76355448v53.81965192h-48.44357831v-53.81965192h48.44357831zM535.97876117 106.75662066999996h-59.23991242v64.61598603h59.23991242v-64.61598603z m-48.44357831 10.79633411h37.63251523v43.02331781h-37.63251523v-43.02331781z m43.05277573 123.75279569h-48.47303624v32.31535749c0 50.04903591 25.21599454 93.19018547 74.94099315 128.20094426l0.1767476 0.11783176c58.81277233 38.04492635 86.06136457 77.01777774 80.99459933 115.8580684-6.92261532 60.4329589-43.11169161 92.3211763-110.61455551 97.54996022-37.94182356 0.81009328-68.78428419-8.49861499-91.82039138-27.70519026-23.15393892-19.2949491-39.28215973-49.28312954-47.94279337-89.13971904l-1.25196236-5.77375578-53.46615666 16.71737957 1.13413059 4.87528866c23.86092942 102.91130485 91.8056624 152.29753717 201.9636199 146.78890286 95.98868955-5.53809226 148.39436045-54.27624995 155.80303175-144.8741369 5.5675502-57.59026793-29.72305899-108.21373362-104.91444462-150.41222918-39.7682157-24.24388261-58.25307152-55.20417499-56.52978218-94.66308234v-29.85561972z m-37.66197315 10.79633412h26.86563906v18.70579034c-1.85585006 43.11169161 18.94145385 78.19609524 61.78802401 104.29582792l0.16201867 0.10310279c35.89449693 20.13450032 62.45082763 42.22795349 78.94727265 65.66174282 16.20186565 23.0213782 23.12448098 48.06062513 20.57636938 74.42547924-3.47603662 42.43415906-17.39491212 75.19138561-41.3736733 97.46158641-24.05240601 22.34384564-59.13680965 34.99602981-104.25164103 37.58832832-52.25838122 2.60702749-94.79564307-7.68852171-126.35982315-30.60679712-30.44477847-22.10818215-51.74286732-56.73598773-63.31983678-102.97022072l32.65412379-10.20717537c19.47169673 81.14188901 69.66802233 121.36670274 149.39593033 119.59922648l0.29457937-0.01472897c72.56962917-5.58227917 113.16266714-41.59460784 120.65971223-107.02068716 5.64119504-43.2147944-23.21285481-85.70786933-85.7667852-126.18307552-46.63191517-32.86032933-70.27191005-72.99676928-70.27191003-119.30464711v-21.53375235z"  horiz-adv-x="1024" />

    


  </font>
</defs>
</svg>
